<?xml version="1.0" encoding="iso-8859-1"?>
<!-- Generator: Adobe Illustrator 22.0.1, SVG Export Plug-In . SVG Version: 6.00 Build 0)  -->
<svg version="1.1" xmlns="http://www.w3.org/2000/svg" xmlns:xlink="http://www.w3.org/1999/xlink" x="0px" y="0px"
	 viewBox="0 0 54 54" style="enable-background:new 0 0 54 54;" xml:space="preserve">
<g id="Ebene_1" style="display:none;">
	<g style="display:inline;">
		<defs>
			<rect id="SVGID_1_" x="1" y="1" width="52" height="52"/>
		</defs>
		<clipPath id="SVGID_2_">
			<use xlink:href="#SVGID_1_"  style="overflow:visible;"/>
		</clipPath>
		<path style="clip-path:url(#SVGID_2_);fill:#1763f1;" d="M8.896,2C8.896,2,2,2,2,8.896v36.208C2,45.104,2,52,8.896,52h36.208
			c0,0,6.896,0,6.896-6.896V8.896C52,8.896,52,2,45.104,2H8.896z"/>
		<path style="clip-path:url(#SVGID_2_);fill:none;stroke:#0C3F6C;stroke-width:2;" d="M8.896,2C8.896,2,2,2,2,8.896v36.208
			C2,45.104,2,52,8.896,52h36.208c0,0,6.896,0,6.896-6.896V8.896C52,8.896,52,2,45.104,2H8.896z"/>
	</g>
	<polygon style="display:inline;fill:#FFFFFF;" points="45.11,7.992 23.86,29.205 12.055,17.436 12.055,31.603 23.86,43.408 
		45.11,22.158 	"/>
</g>
<g id="Ebene_2">
	<g>
		<defs>
			<rect id="SVGID_3_" x="1" y="1" width="52" height="52"/>
		</defs>
		<clipPath id="SVGID_4_">
			<use xlink:href="#SVGID_3_"  style="overflow:visible;"/>
		</clipPath>
		<path style="clip-path:url(#SVGID_4_);fill:#FFFFFF;" d="M8.896,2C8.896,2,2,2,2,8.896v36.208C2,45.104,2,52,8.896,52h36.208
			c0,0,6.896,0,6.896-6.896V8.896C52,8.896,52,2,45.104,2H8.896z"/>
		<path style="clip-path:url(#SVGID_4_);fill:none;stroke:#0C3F6C;stroke-width:2;" d="M8.896,2C8.896,2,2,2,2,8.896v36.208
			C2,45.104,2,52,8.896,52h36.208c0,0,6.896,0,6.896-6.896V8.896C52,8.896,52,2,45.104,2H8.896z"/>
	</g>
	<g>
	</g>
	<g>
	</g>
	<g>
	</g>
	<g>
	</g>
	<g>
	</g>
</g>
</svg>
