<svg xmlns="http://www.w3.org/2000/svg" width="54.87" height="50.576" viewBox="0 0 54.87 50.576">
  <g id="island" transform="translate(0.003 -20.033)">
    <path id="Контур_2266" data-name="Контур 2266" d="M311.525,209.373s-3.929,4.684-4.858,17.2l3.5.805c.5-12.66,2.858-18.075,2.858-18.075Z" transform="translate(-273.806 -168.984)" fill="#96695a"/>
    <path id="Контур_2267" data-name="Контур 2267" d="M311.525,209.372s-3.929,4.684-4.858,17.2l2.03.467a45.509,45.509,0,0,1,2.532-15.274.852.852,0,0,1,1.027-.509l.11.031a18.7,18.7,0,0,1,.659-1.984Z" transform="translate(-273.806 -168.983)" fill="#825a50"/>
    <path id="Контур_2268" data-name="Контур 2268" d="M168.376,93.285l-1.219-.442-.656,1.031s3.59,11.735,3.59,28.881h5.144C173.52,103.894,168.376,93.285,168.376,93.285Z" transform="translate(-148.661 -65.007)" fill="#96695a"/>
    <path id="Контур_2269" data-name="Контур 2269" d="M168.87,95.416l.243-.411c-.453-1.131-.737-1.72-.737-1.72l-1.219-.442-.656,1.031s3.59,11.735,3.59,28.881h2.472A103.8,103.8,0,0,0,168.7,96.778,1.706,1.706,0,0,1,168.87,95.416Z" transform="translate(-148.66 -65.007)" fill="#825a50"/>
    <path id="Контур_2270" data-name="Контур 2270" d="M70.291,363.965c-9.407,0-17.654,3.769-22.29,9.428v.854H92.582l0-.851C87.949,367.735,79.7,363.965,70.291,363.965Z" transform="translate(-42.86 -307.074)" fill="#ffdc64"/>
    <path id="Контур_2271" data-name="Контур 2271" d="M60,373.394A21.3,21.3,0,0,1,74.56,364.24a34.45,34.45,0,0,0-4.267-.274c-9.407,0-17.654,3.769-22.29,9.428v.854H60Z" transform="translate(-42.861 -307.074)" fill="#ffc850"/>
    <path id="Контур_2272" data-name="Контур 2272" d="M92.58,452.817c-.052,0-.091.007-.148.007a3.647,3.647,0,0,1-1.6-.313,7.658,7.658,0,0,0-5.671,0,4.225,4.225,0,0,1-3.192,0,7.65,7.65,0,0,0-5.667,0,4.225,4.225,0,0,1-3.192,0,7.649,7.649,0,0,0-5.667,0,4.223,4.223,0,0,1-3.192,0,7.647,7.647,0,0,0-5.667,0,4.215,4.215,0,0,1-3.187,0,7.642,7.642,0,0,0-5.666,0,3.621,3.621,0,0,1-1.594.313c-.053,0-.089,0-.137-.006v.871a2.171,2.171,0,0,0,2.95,2.028l.019-.008a4.219,4.219,0,0,1,3.189,0,7.638,7.638,0,0,0,5.664,0,4.223,4.223,0,0,1,3.192,0,7.648,7.648,0,0,0,5.667,0,4.225,4.225,0,0,1,3.192,0,7.65,7.65,0,0,0,5.667,0,4.225,4.225,0,0,1,3.192,0,7.65,7.65,0,0,0,5.667,0,4.238,4.238,0,0,1,3.2,0l.034.013a2.172,2.172,0,0,0,2.95-2.028Z" transform="translate(-42.858 -385.644)" fill="#7fe1ff"/>
    <path id="Контур_2273" data-name="Контур 2273" d="M49.574,440.252a6.95,6.95,0,0,1-2.836-.544,4.238,4.238,0,0,0-3.2,0,7.65,7.65,0,0,1-5.667,0,4.225,4.225,0,0,0-3.192,0,7.65,7.65,0,0,1-5.667,0,4.225,4.225,0,0,0-3.192,0,6.943,6.943,0,0,1-2.833.544,6.943,6.943,0,0,1-2.833-.544,3.623,3.623,0,0,0-1.6-.313,3.623,3.623,0,0,0-1.6.313,6.938,6.938,0,0,1-2.832.544,6.928,6.928,0,0,1-2.832-.545,3.618,3.618,0,0,0-1.593-.313,3.623,3.623,0,0,0-1.6.313,6.938,6.938,0,0,1-2.832.544,6.924,6.924,0,0,1-2.832-.545,3.766,3.766,0,0,0-.959-.276,1.715,1.715,0,0,1,.449-3.4,7.018,7.018,0,0,1,1.75.479,3.614,3.614,0,0,0,1.592.313,3.622,3.622,0,0,0,1.594-.313,6.942,6.942,0,0,1,2.834-.545,6.929,6.929,0,0,1,2.832.545,3.616,3.616,0,0,0,1.592.313,3.622,3.622,0,0,0,1.594-.313,6.942,6.942,0,0,1,2.834-.545,6.943,6.943,0,0,1,2.833.544,3.624,3.624,0,0,0,1.6.313,3.624,3.624,0,0,0,1.6-.313,7.649,7.649,0,0,1,5.667,0,4.225,4.225,0,0,0,3.192,0,7.649,7.649,0,0,1,5.667,0,4.225,4.225,0,0,0,3.192,0,7.658,7.658,0,0,1,5.671,0,4.242,4.242,0,0,0,3.2,0,7,7,0,0,1,1.756-.478,1.715,1.715,0,1,1,.445,3.4,3.772,3.772,0,0,0-.965.277A6.953,6.953,0,0,1,49.574,440.252Z" transform="translate(0 -371.358)" fill="#00c3ff"/>
    <g id="Сгруппировать_1931" data-name="Сгруппировать 1931" transform="translate(12.497 20.27)">
      <path id="Контур_2274" data-name="Контур 2274" d="M131.134,94.3s-8.141.381-8.124.354l-6.361,3.951a6.8,6.8,0,0,0,2.541,5.775.638.638,0,0,0,1.023-.421c.265-1.938.943-6.4,2.653-9.3,3.155,1.221,6.54,4.329,7.95,5.7a.64.64,0,0,0,1.065-.282A7.081,7.081,0,0,0,131.134,94.3Z" transform="translate(-116.646 -86.578)" fill="#a0d755"/>
      <path id="Контур_2275" data-name="Контур 2275" d="M143.212,25.239c-.889-1.717-2.552-3.331-3.689-2.94s-1.375,2.637-1.034,4.52l3.825,3.587Z" transform="translate(-136.021 -22.24)" fill="#a0d755"/>
    </g>
    <path id="Контур_2276" data-name="Контур 2276" d="M94.35,27.844c-1.577-2.142-6.017-6.539-12.844-.507a.118.118,0,0,1-.2-.119c.756-2,3.012-4.392,7.136-6.072a.378.378,0,0,0-.047-.717c-2.567-.646-8.991-1.427-8.628,5.845a.223.223,0,0,1-.4.143C75.2,20.553,70.695,25,69.075,27.081a.379.379,0,0,0,.4.594,13.875,13.875,0,0,1,9.049.375.117.117,0,0,1-.07.218c-8.81-.4-9.584,5.7-9.509,8.322a.6.6,0,0,0,.985.445l8.606-7.109A6.244,6.244,0,0,1,82.688,28.5l11.155.3A.6.6,0,0,0,94.35,27.844Z" transform="translate(-61.559)" fill="#b4e66e"/>
    <path id="Контур_2277" data-name="Контур 2277" d="M286.146,187.716c-4.845-4.968-8.083-.626-9.058,1.024a.338.338,0,0,0,.331.505l7.366-.773a2.521,2.521,0,0,1,1.895.586l5.746,4.88a.338.338,0,0,0,.558-.227C293.127,191.807,292.961,186.387,286.146,187.716Z" transform="translate(-247.355 -147.649)" fill="#a0d755"/>
    <path id="Контур_2278" data-name="Контур 2278" d="M324.771,162.16c-1.072-1.445-3.755-4.2-6.339.016a.166.166,0,0,1-.308-.094c.207-4.951-3.5-4.2-5.176-3.615a.322.322,0,0,0-.013.6A7.194,7.194,0,0,1,317,162.785a1.279,1.279,0,0,0,.611.6h0a1.262,1.262,0,0,0,1.109-.012,8.264,8.264,0,0,1,5.724-.707A.322.322,0,0,0,324.771,162.16Z" transform="translate(-279.22 -123.219)" fill="#b4e66e"/>
  </g>
</svg>
