<svg xmlns="http://www.w3.org/2000/svg" width="30" height="30" viewBox="0 0 30 30">
  <g id="Сгруппировать_2649" data-name="Сгруппировать 2649" transform="translate(-491 -572)">
    <rect id="Прямоугольник_865" data-name="Прямоугольник 865" width="30" height="30" transform="translate(491 572)" fill="#be4de8"/>
    <path id="Контур_4926" data-name="Контур 4926" d="M14.18,3.141c-4.525,0-8.821-.4-10.463,3.809-.678,1.74-.579,4-.579,7.234,0,2.839-.091,5.507.579,7.233,1.637,4.214,5.969,3.811,10.46,3.811,4.333,0,8.8.451,10.461-3.811.679-1.757.579-3.983.579-7.233,0-4.314.238-7.1-1.854-9.19-2.118-2.118-4.983-1.853-9.189-1.853Zm-.989,1.99c9.438-.015,10.64-1.064,9.977,13.512-.236,5.155-4.161,4.59-8.986,4.59-8.8,0-9.051-.252-9.051-9.053,0-8.9.7-9.043,8.06-9.051Zm6.884,1.833A1.325,1.325,0,1,0,21.4,8.289,1.325,1.325,0,0,0,20.074,6.964ZM14.18,8.513a5.671,5.671,0,1,0,5.669,5.671A5.671,5.671,0,0,0,14.18,8.513Zm0,1.99c4.866,0,4.872,7.362,0,7.362S9.308,10.5,14.18,10.5Z" transform="translate(491.865 572.818)" fill="#fff"/>
  </g>
</svg>
