<svg id="Ebene_1" data-name="Ebene 1" xmlns="http://www.w3.org/2000/svg" xmlns:xlink="http://www.w3.org/1999/xlink" viewBox="0 0 109.13 109.13">
<defs>
<style>.cls-1,.cls-4,.cls-5{fill:none;}.cls-2{fill:#0c3f6c;}.cls-3{clip-path:url(#clip-path);}.cls-4{stroke:#8cafcb;}.cls-4,.cls-5{stroke-width:11px;}.cls-5{stroke:#0c3f6c;}</style>
<clipPath id="clip-path"><rect class="cls-1" x="0.41" y="0.36" width="110" height="110"/></clipPath>
</defs>
<path class="cls-2" d="M45.88,68H30.56v-4l5.08-7.19a51.52,51.52,0,0,0,2.87-4.41,12.82,12.82,0,0,0,1.15-2.75A9.93,9.93,0,0,0,40,47a3.61,3.61,0,0,0-.74-2.47,2.44,2.44,0,0,0-1.9-.82,3.66,3.66,0,0,0-1.93.55,11,11,0,0,0-2.19,2l-3-3.12a13.31,13.31,0,0,1,3.81-3.19,8.58,8.58,0,0,1,3.81-.85,7.11,7.11,0,0,1,5.4,2,7.83,7.83,0,0,1,1.94,5.64,13.53,13.53,0,0,1-.35,3.11,15,15,0,0,1-1.07,2.94,25,25,0,0,1-1.78,3.06q-1.08,1.59-5.55,7.3v.15h9.36Z"/>
<path class="cls-2" d="M56.52,50.16a6.38,6.38,0,0,1,5.13,2.25,9.18,9.18,0,0,1,1.9,6.15q0,4.66-2.37,7.26a8.48,8.48,0,0,1-6.59,2.6A11.52,11.52,0,0,1,48.51,67V62a9.92,9.92,0,0,0,2.57,1.28,8.83,8.83,0,0,0,2.92.56q4.2,0,4.2-4.88c0-3-1.36-4.55-4.08-4.55a10.76,10.76,0,0,0-3.44.62L49,53.79l.88-14.31H62v4.74H54.39L54,50.39A12.59,12.59,0,0,1,56.52,50.16Z"/>
<path class="cls-2" d="M74,51.51a7.16,7.16,0,0,1-.86,3.87,2.82,2.82,0,0,1-2.52,1.3,2.75,2.75,0,0,1-2.44-1.33,7,7,0,0,1-.87-3.84,7.2,7.2,0,0,1,.83-3.84,2.77,2.77,0,0,1,2.48-1.29,2.81,2.81,0,0,1,2.5,1.33A6.87,6.87,0,0,1,74,51.51Zm-5.14,0a7.45,7.45,0,0,0,.41,2.86,1.41,1.41,0,0,0,1.35,1c1.23,0,1.84-1.28,1.84-3.82s-.61-3.8-1.84-3.8a1.41,1.41,0,0,0-1.35.95A7.36,7.36,0,0,0,68.84,51.51ZM81,46.61,71.87,63H70.22l9.1-16.42Zm2.89,11.48A7,7,0,0,1,83,62a2.82,2.82,0,0,1-2.52,1.31A2.75,2.75,0,0,1,78,61.92a7.12,7.12,0,0,1-.86-3.83A7.1,7.1,0,0,1,78,54.25,2.75,2.75,0,0,1,80.49,53,2.83,2.83,0,0,1,83,54.28,6.75,6.75,0,0,1,83.87,58.09Zm-5.15,0A7.68,7.68,0,0,0,79.13,61a1.41,1.41,0,0,0,1.36.95,1.49,1.49,0,0,0,1.4-.94,7,7,0,0,0,.44-2.88,6.88,6.88,0,0,0-.44-2.85,1.47,1.47,0,0,0-1.4-.92,1.4,1.4,0,0,0-1.36.92A7.53,7.53,0,0,0,78.72,58.09Z"/>
<g class="cls-3">
<path class="cls-4" d="M96.75,55.28A41.42,41.42,0,1,1,55.33,13.86"/>
<path class="cls-5" d="M55.33,13.86A41.41,41.41,0,0,1,96.75,55.28"/>
</g></svg>