<svg xmlns="http://www.w3.org/2000/svg" width="43.442" height="43.441" viewBox="0 0 43.442 43.441">
  <g id="moon" transform="translate(0 -0.008)">
    <path id="Контур_4905" data-name="Контур 4905" d="M12.769,32.654A19.869,19.869,0,0,0,27.992.008,22.253,22.253,0,1,1,0,28,19.787,19.787,0,0,0,12.769,32.654Z" fill="#ffd93b"/>
    <path id="Контур_4906" data-name="Контур 4906" d="M74.005,42.776A22.232,22.232,0,0,1,42.784,74,22.236,22.236,0,1,0,74.005,42.776Z" transform="translate(-39.065 -39.05)" fill="#f4c534"/>
    <g id="Сгруппировать_2608" data-name="Сгруппировать 2608" transform="translate(3.718 7.209)">
      <path id="Контур_4907" data-name="Контур 4907" d="M50.189,99.944l2.292,4.647,5.127.744-3.71,3.616.875,5.106-4.585-2.411L45.6,114.058l.875-5.106-3.71-3.616,5.127-.744Z" transform="translate(-42.768 -98.457)" fill="#ffd83b"/>
      <path id="Контур_4908" data-name="Контур 4908" d="M236.47,82.84l1.188,2.409,2.658.385-1.924,1.875.455,2.646-2.377-1.249-2.377,1.249.455-2.646-1.924-1.875,2.658-.385Z" transform="translate(-216.119 -82.84)" fill="#ffd83b"/>
    </g>
  </g>
</svg>
