<svg id="sun" xmlns="http://www.w3.org/2000/svg" width="56.341" height="56.341" viewBox="0 0 56.341 56.341">
  <path id="Контур_4915" data-name="Контур 4915" d="M142.36,128.1c0,8.5-5.758,15.394-14.26,15.394a15.394,15.394,0,0,1,0-30.788C136.6,112.706,142.36,119.6,142.36,128.1Z" transform="translate(-99.929 -99.929)" fill="#fee45a"/>
  <path id="Контур_4916" data-name="Контур 4916" d="M235.2,112.706a15.54,15.54,0,0,0-1.7.094,15.394,15.394,0,0,1,0,30.6,15.394,15.394,0,1,0,1.7-30.694Z" transform="translate(-207.03 -99.929)" fill="#fed402"/>
  <path id="Контур_4917" data-name="Контур 4917" d="M222.1,9h-2.784a.59.59,0,0,1-.556-.788l1.53-4.3L221.549.392a.59.59,0,0,1,1.112,0l1.254,3.524,1.53,4.3a.59.59,0,0,1-.556.788Z" transform="translate(-193.934)" fill="#fee45a"/>
  <path id="Контур_4918" data-name="Контур 4918" d="M222.1,417.57h2.784a.59.59,0,0,1,.556.788l-1.53,4.3-1.254,3.524a.59.59,0,0,1-1.112,0l-1.254-3.524-1.53-4.3a.59.59,0,0,1,.556-.788Z" transform="translate(-193.934 -370.234)" fill="#fee45a"/>
  <path id="Контур_4919" data-name="Контур 4919" d="M417.57,222.1v-2.784a.59.59,0,0,1,.788-.556l4.3,1.53,3.524,1.254a.59.59,0,0,1,0,1.112l-3.524,1.254-4.3,1.53a.59.59,0,0,1-.788-.556Z" transform="translate(-370.234 -193.934)" fill="#fed402"/>
  <path id="Контур_4920" data-name="Контур 4920" d="M9,222.1v2.784a.59.59,0,0,1-.788.556l-4.3-1.53L.392,222.66a.59.59,0,0,1,0-1.112l3.524-1.254,4.3-1.53A.59.59,0,0,1,9,219.32Z" transform="translate(0 -193.934)" fill="#fee45a"/>
  <path id="Контур_4921" data-name="Контур 4921" d="M77.781,77.781l-1.969,1.969a.59.59,0,0,1-.951-.164L72.9,75.463,71.3,72.084a.59.59,0,0,1,.787-.787L75.464,72.9l4.122,1.958a.59.59,0,0,1,.164.951Z" transform="translate(-63.163 -63.163)" fill="#fee45a"/>
  <path id="Контур_4922" data-name="Контур 4922" d="M351.3,351.3l1.969-1.969a.59.59,0,0,1,.951.164l1.958,4.122L357.782,357a.59.59,0,0,1-.787.787l-3.379-1.605-4.122-1.958a.59.59,0,0,1-.164-.951Z" transform="translate(-309.577 -309.577)" fill="#fed402"/>
  <path id="Контур_4923" data-name="Контур 4923" d="M351.3,77.782l-1.969-1.969a.59.59,0,0,1,.164-.951l4.122-1.958L357,71.3a.59.59,0,0,1,.787.787l-1.605,3.379-1.958,4.122a.59.59,0,0,1-.951.164Z" transform="translate(-309.577 -63.164)" fill="#fed402"/>
  <path id="Контур_4924" data-name="Контур 4924" d="M77.781,351.3l1.969,1.969a.59.59,0,0,1-.164.951l-4.122,1.958-3.379,1.605a.59.59,0,0,1-.787-.787l1.605-3.379,1.958-4.122a.59.59,0,0,1,.951-.164Z" transform="translate(-63.163 -309.576)" fill="#fee45a"/>
</svg>
