<svg xmlns="http://www.w3.org/2000/svg" width="706.314" height="88.315" viewBox="0 0 706.314 88.315">
  <g id="Сгруппировать_2750" data-name="Сгруппировать 2750" transform="translate(-7.442 -7.883)">
    <path id="Контур_4886" data-name="Контур 4886" d="M6.024,13H4.442V4.434H8.28V5.811H6.024V8.189h2.1V9.566h-2.1Zm6.018-6.65a1.839,1.839,0,0,1,.563.088l-.182,1.512A1.3,1.3,0,0,0,12,7.891a.992.992,0,0,0-.873.448,2.318,2.318,0,0,0-.3,1.3V13H9.259V6.473h1.283l.176,1.02h.053a2.367,2.367,0,0,1,.563-.879A1.05,1.05,0,0,1,12.042,6.35Zm3.668,6.768a2.352,2.352,0,0,1-1.931-.87,3.817,3.817,0,0,1-.706-2.464,4.335,4.335,0,0,1,.639-2.525,2.055,2.055,0,0,1,1.781-.908,2.03,2.03,0,0,1,1.682.776A3.425,3.425,0,0,1,17.79,9.3v.832H14.655a2.129,2.129,0,0,0,.357,1.3,1.135,1.135,0,0,0,.938.425,3.038,3.038,0,0,0,1.559-.475v1.283A3.426,3.426,0,0,1,15.71,13.117Zm-.229-5.566a.636.636,0,0,0-.551.354A2.385,2.385,0,0,0,14.679,9h1.582a2.363,2.363,0,0,0-.217-1.084A.625.625,0,0,0,15.481,7.551ZM20.392,13H18.833V6.473h1.559ZM18.769,4.768a.827.827,0,0,1,.226-.612.851.851,0,0,1,.63-.226.782.782,0,0,1,.838.838.806.806,0,0,1-.234.618.847.847,0,0,1-.6.22A.871.871,0,0,1,19,5.386.806.806,0,0,1,18.769,4.768ZM24.979,13V9.109q0-1.436-.721-1.436a.77.77,0,0,0-.756.565,4.741,4.741,0,0,0-.217,1.626V13H21.728V3.883h1.559V5.91q0,.393-.07,1.4H23.3a1.524,1.524,0,0,1,1.441-.961,1.588,1.588,0,0,1,1.354.606A2.935,2.935,0,0,1,26.55,8.74V13Zm5.238.117a2.352,2.352,0,0,1-1.931-.87,3.817,3.817,0,0,1-.706-2.464,4.335,4.335,0,0,1,.639-2.525A2.055,2.055,0,0,1,30,6.35a2.03,2.03,0,0,1,1.682.776A3.425,3.425,0,0,1,32.3,9.3v.832H29.163a2.129,2.129,0,0,0,.357,1.3,1.135,1.135,0,0,0,.938.425,3.038,3.038,0,0,0,1.559-.475v1.283A3.426,3.426,0,0,1,30.218,13.117Zm-.229-5.566a.636.636,0,0,0-.551.354A2.385,2.385,0,0,0,29.187,9h1.582a2.363,2.363,0,0,0-.217-1.084A.625.625,0,0,0,29.989,7.551ZM34.9,13H33.341V6.473H34.9ZM33.276,4.768a.827.827,0,0,1,.226-.612.851.851,0,0,1,.63-.226.782.782,0,0,1,.838.838.806.806,0,0,1-.234.618.847.847,0,0,1-.6.22.871.871,0,0,1-.621-.22A.806.806,0,0,1,33.276,4.768ZM38.5,11.8a1.8,1.8,0,0,0,.709-.164v1.219a2.016,2.016,0,0,1-1.143.264,1.524,1.524,0,0,1-1.26-.507,2.382,2.382,0,0,1-.41-1.521V7.709h-.633v-.7l.814-.562.4-1.383h1V6.473h1.184V7.709H37.976v3.434Q37.976,11.8,38.5,11.8Zm5.127-.709a1.967,1.967,0,0,1-.56,1.491,2.3,2.3,0,0,1-1.649.536,3.06,3.06,0,0,1-1.6-.381V11.383a3.038,3.038,0,0,0,.753.369,2.4,2.4,0,0,0,.759.146.78.78,0,0,0,.554-.179.617.617,0,0,0,.19-.472.757.757,0,0,0-.2-.521,3.392,3.392,0,0,0-.732-.545,3.005,3.005,0,0,1-1.017-.9,2.037,2.037,0,0,1-.308-1.128,1.641,1.641,0,0,1,.571-1.318A2.341,2.341,0,0,1,41.96,6.35a3.143,3.143,0,0,1,1.635.457l-.51,1.119a2.383,2.383,0,0,0-1.1-.34.588.588,0,0,0-.448.158.542.542,0,0,0-.149.387.681.681,0,0,0,.185.469,3.238,3.238,0,0,0,.688.51,4.389,4.389,0,0,1,.855.627,1.871,1.871,0,0,1,.381.586A2.011,2.011,0,0,1,43.63,11.09ZM46.173,13H44.614V3.883h1.559Zm2.877,0H47.491V6.473H49.05ZM47.427,4.768a.827.827,0,0,1,.226-.612.851.851,0,0,1,.63-.226.782.782,0,0,1,.838.838.806.806,0,0,1-.234.618.847.847,0,0,1-.6.22.871.871,0,0,1-.621-.22A.806.806,0,0,1,47.427,4.768Zm5.367,8.35a2.352,2.352,0,0,1-1.931-.87,3.817,3.817,0,0,1-.706-2.464A4.335,4.335,0,0,1,50.8,7.258a2.055,2.055,0,0,1,1.781-.908,2.03,2.03,0,0,1,1.682.776A3.425,3.425,0,0,1,54.874,9.3v.832H51.739a2.129,2.129,0,0,0,.357,1.3,1.135,1.135,0,0,0,.938.425,3.038,3.038,0,0,0,1.559-.475v1.283A3.426,3.426,0,0,1,52.794,13.117Zm-.229-5.566a.636.636,0,0,0-.551.354A2.385,2.385,0,0,0,51.763,9h1.582a2.363,2.363,0,0,0-.217-1.084A.625.625,0,0,0,52.565,7.551Zm6.287-1.2a1.558,1.558,0,0,1,1.4.885,5.029,5.029,0,0,1,.51,2.49,5.048,5.048,0,0,1-.513,2.508,1.577,1.577,0,0,1-1.421.885,1.55,1.55,0,0,1-.776-.19,1.891,1.891,0,0,1-.636-.671h-.1L57.054,13H55.905V3.883h1.559V6.016q0,.135-.006.281t-.076,1.025h.082a1.993,1.993,0,0,1,.621-.756A1.378,1.378,0,0,1,58.853,6.35Zm-.539,1.324a.664.664,0,0,0-.642.416,3.9,3.9,0,0,0-.208,1.465v.158a4.417,4.417,0,0,0,.2,1.6.683.683,0,0,0,.659.463q.844,0,.844-2.074Q59.169,7.674,58.313,7.674Zm5.953,5.443a2.352,2.352,0,0,1-1.931-.87,3.817,3.817,0,0,1-.706-2.464,4.335,4.335,0,0,1,.639-2.525A2.055,2.055,0,0,1,64.05,6.35a2.03,2.03,0,0,1,1.682.776A3.425,3.425,0,0,1,66.347,9.3v.832H63.212a2.129,2.129,0,0,0,.357,1.3,1.135,1.135,0,0,0,.938.425,3.038,3.038,0,0,0,1.559-.475v1.283A3.426,3.426,0,0,1,64.267,13.117Zm-.229-5.566a.636.636,0,0,0-.551.354A2.385,2.385,0,0,0,63.235,9h1.582A2.363,2.363,0,0,0,64.6,7.92.625.625,0,0,0,64.038,7.551ZM70.63,13V9.109a2.628,2.628,0,0,0-.17-1.072.571.571,0,0,0-.551-.363.773.773,0,0,0-.738.5,4.34,4.34,0,0,0-.234,1.69V13H67.378V6.473h1.236l.188.838h.1a1.611,1.611,0,0,1,1.523-.961,1.539,1.539,0,0,1,1.333.609A3.011,3.011,0,0,1,72.2,8.74V13Zm4.547.117a1.591,1.591,0,0,1-1.424-.891,4.926,4.926,0,0,1-.521-2.479,5.1,5.1,0,0,1,.51-2.5,1.56,1.56,0,0,1,1.406-.9,1.343,1.343,0,0,1,.771.22,2,2,0,0,1,.6.741h.094q-.07-.891-.07-1.248V3.883H78.1V13H76.94l-.264-.85h-.053A1.566,1.566,0,0,1,75.177,13.117Zm.5-1.318a.663.663,0,0,0,.633-.4,3.7,3.7,0,0,0,.217-1.438V9.76a4.417,4.417,0,0,0-.2-1.6.686.686,0,0,0-.665-.463q-.434,0-.63.53a4.669,4.669,0,0,0-.2,1.544,4.391,4.391,0,0,0,.2,1.521A.677.677,0,0,0,75.681,11.8Zm6.141,1.318a2.352,2.352,0,0,1-1.931-.87,3.817,3.817,0,0,1-.706-2.464,4.335,4.335,0,0,1,.639-2.525A2.055,2.055,0,0,1,81.6,6.35a2.03,2.03,0,0,1,1.682.776A3.425,3.425,0,0,1,83.9,9.3v.832H80.767a2.129,2.129,0,0,0,.357,1.3,1.135,1.135,0,0,0,.938.425,3.038,3.038,0,0,0,1.559-.475v1.283A3.426,3.426,0,0,1,81.821,13.117Zm-.229-5.566a.636.636,0,0,0-.551.354A2.385,2.385,0,0,0,80.79,9h1.582a2.363,2.363,0,0,0-.217-1.084A.625.625,0,0,0,81.593,7.551Zm6.123-1.2a1.839,1.839,0,0,1,.563.088L88.1,7.949a1.3,1.3,0,0,0-.428-.059.992.992,0,0,0-.873.448,2.318,2.318,0,0,0-.3,1.3V13H84.933V6.473h1.283l.176,1.02h.053a2.367,2.367,0,0,1,.563-.879A1.05,1.05,0,0,1,87.716,6.35ZM28.823,25.639a2.571,2.571,0,0,1-.606,1.84,2.3,2.3,0,0,1-1.749.639,3.845,3.845,0,0,1-1.9-.439V26.1a3.3,3.3,0,0,0,1.764.627.889.889,0,0,0,.688-.252.974.974,0,0,0,.231-.686,1.246,1.246,0,0,0-.275-.782,4.091,4.091,0,0,0-.908-.788,4.045,4.045,0,0,1-.835-.729,2.633,2.633,0,0,1-.439-.782,2.985,2.985,0,0,1-.155-1.008,2.431,2.431,0,0,1,.612-1.746,2.16,2.16,0,0,1,1.644-.645,3.6,3.6,0,0,1,1.893.551l-.527,1.277a5.01,5.01,0,0,0-.589-.293,1.688,1.688,0,0,0-.659-.129.724.724,0,0,0-.595.255,1.067,1.067,0,0,0-.208.694,1.2,1.2,0,0,0,.249.756,3.69,3.69,0,0,0,.87.732A3.618,3.618,0,0,1,28.492,24.3,2.668,2.668,0,0,1,28.823,25.639Zm5.795-.914a4.048,4.048,0,0,1-.68,2.5,2.371,2.371,0,0,1-3.187.483,2.6,2.6,0,0,1-.885-1.181,4.8,4.8,0,0,1-.311-1.8,4.042,4.042,0,0,1,.674-2.481A2.209,2.209,0,0,1,32.1,21.35a2.177,2.177,0,0,1,1.837.911A4.018,4.018,0,0,1,34.618,24.725Zm-3.469,0a4.1,4.1,0,0,0,.223,1.541.746.746,0,0,0,.715.521q.938,0,.938-2.062a3.958,3.958,0,0,0-.226-1.532.755.755,0,0,0-1.427,0A4,4,0,0,0,31.149,24.725Zm6.721,3.393a2.048,2.048,0,0,1-1.775-.85,4.264,4.264,0,0,1-.609-2.5,4.617,4.617,0,0,1,.577-2.572,2.007,2.007,0,0,1,1.784-.85,2.977,2.977,0,0,1,.762.105,2.563,2.563,0,0,1,.715.3l-.445,1.213a1.748,1.748,0,0,0-.861-.287.744.744,0,0,0-.718.519,4.192,4.192,0,0,0-.22,1.556,4.014,4.014,0,0,0,.217,1.515.734.734,0,0,0,.709.5,2.277,2.277,0,0,0,1.225-.41v1.371A2.532,2.532,0,0,1,37.87,28.117ZM41.737,28H40.179V21.473h1.559Zm-1.623-8.232a.827.827,0,0,1,.226-.612.851.851,0,0,1,.63-.226.782.782,0,0,1,.838.838.806.806,0,0,1-.234.618.847.847,0,0,1-.6.22.871.871,0,0,1-.621-.22A.806.806,0,0,1,40.114,19.768ZM46.272,28l-.311-.891h-.035a2.214,2.214,0,0,1-.715.791,1.817,1.817,0,0,1-.932.217,1.35,1.35,0,0,1-1.134-.539,2.415,2.415,0,0,1-.413-1.5,1.943,1.943,0,0,1,.565-1.532,2.681,2.681,0,0,1,1.69-.554l.867-.035v-.469q0-.914-.791-.914a2.706,2.706,0,0,0-1.348.457l-.539-1.078a3.882,3.882,0,0,1,2.115-.615,2.029,2.029,0,0,1,1.579.595,2.413,2.413,0,0,1,.542,1.685V28Zm-1.354-1.1a.783.783,0,0,0,.683-.384,1.822,1.822,0,0,0,.255-1.022v-.551l-.48.023a1.091,1.091,0,0,0-.782.3,1.188,1.188,0,0,0-.249.82Q44.345,26.9,44.919,26.9ZM50.233,28H48.675V18.883h1.559Zm2.877,0H51.552V21.473H53.11Zm-1.623-8.232a.827.827,0,0,1,.226-.612.851.851,0,0,1,.63-.226.782.782,0,0,1,.838.838.806.806,0,0,1-.234.618.847.847,0,0,1-.6.22.871.871,0,0,1-.621-.22A.806.806,0,0,1,51.487,19.768ZM57.95,26.09a1.967,1.967,0,0,1-.56,1.491,2.3,2.3,0,0,1-1.649.536,3.06,3.06,0,0,1-1.6-.381V26.383a3.038,3.038,0,0,0,.753.369,2.4,2.4,0,0,0,.759.146.78.78,0,0,0,.554-.179.617.617,0,0,0,.19-.472.757.757,0,0,0-.2-.521,3.392,3.392,0,0,0-.732-.545,3.005,3.005,0,0,1-1.017-.9,2.037,2.037,0,0,1-.308-1.128,1.641,1.641,0,0,1,.571-1.318,2.341,2.341,0,0,1,1.567-.486,3.143,3.143,0,0,1,1.635.457l-.51,1.119a2.383,2.383,0,0,0-1.1-.34.588.588,0,0,0-.448.158.542.542,0,0,0-.149.387.681.681,0,0,0,.185.469,3.238,3.238,0,0,0,.688.51,4.389,4.389,0,0,1,.855.627,1.871,1.871,0,0,1,.381.586A2.011,2.011,0,0,1,57.95,26.09Zm3.393,2.027a2.352,2.352,0,0,1-1.931-.87,3.817,3.817,0,0,1-.706-2.464,4.335,4.335,0,0,1,.639-2.525,2.055,2.055,0,0,1,1.781-.908,2.03,2.03,0,0,1,1.682.776,3.425,3.425,0,0,1,.615,2.177v.832H60.288a2.129,2.129,0,0,0,.357,1.3,1.135,1.135,0,0,0,.938.425,3.038,3.038,0,0,0,1.559-.475v1.283A3.426,3.426,0,0,1,61.343,28.117Zm-.229-5.566a.636.636,0,0,0-.551.354,2.385,2.385,0,0,0-.252,1.1h1.582a2.363,2.363,0,0,0-.217-1.084A.625.625,0,0,0,61.114,22.551Zm6.123-1.2a1.839,1.839,0,0,1,.563.088l-.182,1.512a1.3,1.3,0,0,0-.428-.059.992.992,0,0,0-.873.448,2.318,2.318,0,0,0-.3,1.3V28H64.454V21.473h1.283l.176,1.02h.053a2.367,2.367,0,0,1,.563-.879A1.05,1.05,0,0,1,67.237,21.35Z" transform="translate(3 4)" fill="#0c3f6c"/>
    <path id="Контур_4888" data-name="Контур 4888" d="M14.923,13H12.931l-.838-4.488a15.687,15.687,0,0,1-.275-2.174l-.047.434-.24,1.764L10.716,13H8.724L7.171,4.434H8.735L9.5,9.268q.111.727.3,2.279.146-1.57.275-2.244l.914-4.869h1.652L13.558,9.3q.182,1.084.287,2.256.205-1.734.3-2.291l.744-4.834h1.576Zm4.535.117a2.352,2.352,0,0,1-1.931-.87,3.817,3.817,0,0,1-.706-2.464,4.335,4.335,0,0,1,.639-2.525,2.055,2.055,0,0,1,1.781-.908,2.03,2.03,0,0,1,1.682.776A3.425,3.425,0,0,1,21.538,9.3v.832H18.4a2.129,2.129,0,0,0,.357,1.3,1.135,1.135,0,0,0,.938.425,3.038,3.038,0,0,0,1.559-.475v1.283A3.426,3.426,0,0,1,19.458,13.117Zm-.229-5.566a.636.636,0,0,0-.551.354A2.385,2.385,0,0,0,18.427,9h1.582a2.363,2.363,0,0,0-.217-1.084A.625.625,0,0,0,19.229,7.551ZM24.128,13H22.569V3.883h1.559ZM27.7,11.8a1.8,1.8,0,0,0,.709-.164v1.219a2.016,2.016,0,0,1-1.143.264,1.524,1.524,0,0,1-1.26-.507,2.382,2.382,0,0,1-.41-1.521V7.709h-.633v-.7l.814-.562.4-1.383h1V6.473h1.184V7.709H27.175v3.434Q27.175,11.8,27.7,11.8Zm6.457-2.074a4.048,4.048,0,0,1-.68,2.5,2.371,2.371,0,0,1-3.187.483,2.6,2.6,0,0,1-.885-1.181,4.8,4.8,0,0,1-.311-1.8,4.042,4.042,0,0,1,.674-2.481A2.209,2.209,0,0,1,31.64,6.35a2.177,2.177,0,0,1,1.837.911A4.018,4.018,0,0,1,34.159,9.725Zm-3.469,0a4.1,4.1,0,0,0,.223,1.541.746.746,0,0,0,.715.521q.938,0,.938-2.062a3.958,3.958,0,0,0-.226-1.532.755.755,0,0,0-1.427,0A4,4,0,0,0,30.69,9.725ZM41.741,7.709H40.663V13H39.1V7.709h-.756V6.93l.756-.469V5.969a2.456,2.456,0,0,1,.451-1.62,1.809,1.809,0,0,1,1.453-.53,2.668,2.668,0,0,1,1.178.264l-.41,1.189a1.368,1.368,0,0,0-.6-.141.421.421,0,0,0-.393.211,1.331,1.331,0,0,0-.123.65v.48h1.078Zm-3.586,0H37.077V13H35.519V7.709h-.756V6.93l.756-.469V5.969a2.456,2.456,0,0,1,.451-1.62,1.809,1.809,0,0,1,1.453-.53,2.668,2.668,0,0,1,1.178.264l-.41,1.189a1.368,1.368,0,0,0-.6-.141.421.421,0,0,0-.393.211,1.331,1.331,0,0,0-.123.65v.48h1.078Zm6.686,5.408a2.352,2.352,0,0,1-1.931-.87A3.817,3.817,0,0,1,42.2,9.783a4.335,4.335,0,0,1,.639-2.525,2.055,2.055,0,0,1,1.781-.908,2.03,2.03,0,0,1,1.682.776A3.425,3.425,0,0,1,46.921,9.3v.832H43.786a2.129,2.129,0,0,0,.357,1.3,1.135,1.135,0,0,0,.938.425,3.038,3.038,0,0,0,1.559-.475v1.283A3.426,3.426,0,0,1,44.841,13.117Zm-.229-5.566a.636.636,0,0,0-.551.354A2.385,2.385,0,0,0,43.81,9h1.582a2.363,2.363,0,0,0-.217-1.084A.625.625,0,0,0,44.612,7.551ZM51.2,13V9.109a2.628,2.628,0,0,0-.17-1.072.571.571,0,0,0-.551-.363.773.773,0,0,0-.738.5,4.34,4.34,0,0,0-.234,1.69V13H47.952V6.473h1.236l.188.838h.1A1.611,1.611,0,0,1,51,6.35a1.539,1.539,0,0,1,1.333.609,3.011,3.011,0,0,1,.442,1.781V13Zm5.238.117a2.352,2.352,0,0,1-1.931-.87,3.817,3.817,0,0,1-.706-2.464,4.335,4.335,0,0,1,.639-2.525,2.055,2.055,0,0,1,1.781-.908,2.03,2.03,0,0,1,1.682.776A3.425,3.425,0,0,1,58.522,9.3v.832H55.388a2.129,2.129,0,0,0,.357,1.3,1.135,1.135,0,0,0,.938.425,3.038,3.038,0,0,0,1.559-.475v1.283A3.426,3.426,0,0,1,56.442,13.117Zm-.229-5.566a.636.636,0,0,0-.551.354A2.385,2.385,0,0,0,55.411,9h1.582a2.363,2.363,0,0,0-.217-1.084A.625.625,0,0,0,56.214,7.551Zm6.123-1.2a1.839,1.839,0,0,1,.563.088l-.182,1.512a1.3,1.3,0,0,0-.428-.059.992.992,0,0,0-.873.448,2.318,2.318,0,0,0-.3,1.3V13H59.554V6.473h1.283l.176,1.02h.053a2.367,2.367,0,0,1,.563-.879A1.05,1.05,0,0,1,62.337,6.35Zm-45.29,16.9h2.619v4.395a5.973,5.973,0,0,1-2.367.475A2.65,2.65,0,0,1,15,26.98a5.625,5.625,0,0,1-.806-3.275,5.076,5.076,0,0,1,.923-3.229A3.105,3.105,0,0,1,17.7,19.311a3.916,3.916,0,0,1,1.957.527l-.5,1.3a2.732,2.732,0,0,0-1.359-.422,1.639,1.639,0,0,0-1.438.812,4.006,4.006,0,0,0-.53,2.212,5.067,5.067,0,0,0,.384,2.209,1.207,1.207,0,0,0,1.116.768,3.229,3.229,0,0,0,.785-.1V24.654H17.047Zm6.24,4.869a2.352,2.352,0,0,1-1.931-.87,3.817,3.817,0,0,1-.706-2.464,4.335,4.335,0,0,1,.639-2.525,2.055,2.055,0,0,1,1.781-.908,2.03,2.03,0,0,1,1.682.776,3.425,3.425,0,0,1,.615,2.177v.832H22.232a2.129,2.129,0,0,0,.357,1.3,1.135,1.135,0,0,0,.938.425,3.038,3.038,0,0,0,1.559-.475v1.283A3.426,3.426,0,0,1,23.287,28.117Zm-.229-5.566a.636.636,0,0,0-.551.354,2.385,2.385,0,0,0-.252,1.1h1.582a2.363,2.363,0,0,0-.217-1.084A.625.625,0,0,0,23.059,22.551ZM29.65,28V24.109a2.628,2.628,0,0,0-.17-1.072.571.571,0,0,0-.551-.363.773.773,0,0,0-.738.5,4.34,4.34,0,0,0-.234,1.69V28H26.4V21.473h1.236l.188.838h.1a1.611,1.611,0,0,1,1.523-.961,1.539,1.539,0,0,1,1.333.609,3.011,3.011,0,0,1,.442,1.781V28Zm4.4,0H32.492V21.473h1.559Zm-1.623-8.232a.827.827,0,0,1,.226-.612.851.851,0,0,1,.63-.226.782.782,0,0,1,.838.838.806.806,0,0,1-.234.618.847.847,0,0,1-.6.22.871.871,0,0,1-.621-.22A.806.806,0,0,1,32.428,19.768Zm5.367,8.35a2.352,2.352,0,0,1-1.931-.87,3.817,3.817,0,0,1-.706-2.464,4.335,4.335,0,0,1,.639-2.525,2.055,2.055,0,0,1,1.781-.908,2.03,2.03,0,0,1,1.682.776,3.425,3.425,0,0,1,.615,2.177v.832H36.74a2.129,2.129,0,0,0,.357,1.3,1.135,1.135,0,0,0,.938.425,3.038,3.038,0,0,0,1.559-.475v1.283A3.426,3.426,0,0,1,37.795,28.117Zm-.229-5.566a.636.636,0,0,0-.551.354,2.385,2.385,0,0,0-.252,1.1h1.582a2.363,2.363,0,0,0-.217-1.084A.625.625,0,0,0,37.566,22.551Zm8.32-1.846a2.169,2.169,0,0,1-.621,1.541l-.3.311a.937.937,0,0,0-.328.545.638.638,0,0,0,.155.4,5.876,5.876,0,0,0,.741.668,2.609,2.609,0,0,1,.753.858,2.283,2.283,0,0,1,.2.987,2.022,2.022,0,0,1-.586,1.544,2.321,2.321,0,0,1-1.658.554,2.659,2.659,0,0,1-1.354-.311V26.488a2.189,2.189,0,0,0,1.219.41q.785,0,.785-.756a.985.985,0,0,0-.158-.56,3.326,3.326,0,0,0-.674-.642,2.845,2.845,0,0,1-.747-.756,1.63,1.63,0,0,1-.226-.867,1.5,1.5,0,0,1,.146-.665,2.267,2.267,0,0,1,.463-.612,2.835,2.835,0,0,0,.472-.565,1.006,1.006,0,0,0,.132-.507.854.854,0,0,0-.226-.627.886.886,0,0,0-.659-.229q-.949,0-.949,1.189V28H40.906V21.256a2.381,2.381,0,0,1,.659-1.811,2.61,2.61,0,0,1,1.872-.627,2.9,2.9,0,0,1,1.8.5A1.65,1.65,0,0,1,45.887,20.705Zm3.92,7.412a2.352,2.352,0,0,1-1.931-.87,3.817,3.817,0,0,1-.706-2.464,4.335,4.335,0,0,1,.639-2.525,2.055,2.055,0,0,1,1.781-.908,2.03,2.03,0,0,1,1.682.776,3.425,3.425,0,0,1,.615,2.177v.832H48.752a2.129,2.129,0,0,0,.357,1.3,1.135,1.135,0,0,0,.938.425,3.038,3.038,0,0,0,1.559-.475v1.283A3.426,3.426,0,0,1,49.807,28.117Zm-.229-5.566a.636.636,0,0,0-.551.354,2.385,2.385,0,0,0-.252,1.1h1.582a2.363,2.363,0,0,0-.217-1.084A.625.625,0,0,0,49.578,22.551Zm6.123-1.2a1.839,1.839,0,0,1,.563.088l-.182,1.512a1.3,1.3,0,0,0-.428-.059.992.992,0,0,0-.873.448,2.318,2.318,0,0,0-.3,1.3V28H52.918V21.473H54.2l.176,1.02h.053a2.367,2.367,0,0,1,.563-.879A1.05,1.05,0,0,1,55.7,21.35Z" transform="translate(180 33)" fill="#0c3f6c"/>
    <path id="Контур_4897" data-name="Контур 4897" d="M19.231,4.434V9.977a3.489,3.489,0,0,1-.691,2.335,2.488,2.488,0,0,1-2,.806,2.391,2.391,0,0,1-1.945-.8,3.611,3.611,0,0,1-.668-2.364V4.434h1.582V10.07q0,1.635,1.084,1.635a.881.881,0,0,0,.779-.416,2.139,2.139,0,0,0,.275-1.184V4.434ZM23.866,13V9.109a2.628,2.628,0,0,0-.17-1.072.571.571,0,0,0-.551-.363.773.773,0,0,0-.738.5,4.34,4.34,0,0,0-.234,1.69V13H20.614V6.473h1.236l.188.838h.1a1.611,1.611,0,0,1,1.523-.961,1.539,1.539,0,0,1,1.333.609,3.011,3.011,0,0,1,.442,1.781V13ZM29.9,13l-.311-.891H29.55a2.214,2.214,0,0,1-.715.791,1.817,1.817,0,0,1-.932.217,1.35,1.35,0,0,1-1.134-.539,2.415,2.415,0,0,1-.413-1.5,1.943,1.943,0,0,1,.565-1.532,2.681,2.681,0,0,1,1.69-.554l.867-.035V8.488q0-.914-.791-.914a2.706,2.706,0,0,0-1.348.457L26.8,6.953a3.882,3.882,0,0,1,2.115-.615,2.029,2.029,0,0,1,1.579.595,2.413,2.413,0,0,1,.542,1.685V13Zm-1.354-1.1a.783.783,0,0,0,.683-.384,1.822,1.822,0,0,0,.255-1.022V9.941L29,9.965a1.091,1.091,0,0,0-.782.3,1.188,1.188,0,0,0-.249.82Q27.968,11.9,28.542,11.9Zm6.7-5.549a1.558,1.558,0,0,1,1.4.885,5.029,5.029,0,0,1,.51,2.49,5.048,5.048,0,0,1-.513,2.508,1.577,1.577,0,0,1-1.421.885,1.55,1.55,0,0,1-.776-.19,1.891,1.891,0,0,1-.636-.671h-.1L33.446,13H32.3V3.883h1.559V6.016q0,.135-.006.281t-.076,1.025h.082a1.993,1.993,0,0,1,.621-.756A1.378,1.378,0,0,1,35.245,6.35Zm-.539,1.324a.664.664,0,0,0-.642.416,3.9,3.9,0,0,0-.208,1.465v.158a4.417,4.417,0,0,0,.2,1.6.683.683,0,0,0,.659.463q.844,0,.844-2.074Q35.562,7.674,34.706,7.674ZM41.5,13V9.109q0-1.436-.721-1.436a.77.77,0,0,0-.756.565,4.741,4.741,0,0,0-.217,1.626V13H38.251V3.883H39.81V5.91q0,.393-.07,1.4h.082a1.524,1.524,0,0,1,1.441-.961,1.588,1.588,0,0,1,1.354.606,2.935,2.935,0,0,1,.457,1.784V13Zm6.029,0-.311-.891h-.035a2.214,2.214,0,0,1-.715.791,1.817,1.817,0,0,1-.932.217,1.35,1.35,0,0,1-1.134-.539,2.415,2.415,0,0,1-.413-1.5,1.943,1.943,0,0,1,.565-1.532,2.681,2.681,0,0,1,1.69-.554l.867-.035V8.488q0-.914-.791-.914a2.706,2.706,0,0,0-1.348.457l-.539-1.078a3.882,3.882,0,0,1,2.115-.615,2.029,2.029,0,0,1,1.579.595,2.413,2.413,0,0,1,.542,1.685V13Zm-1.354-1.1a.783.783,0,0,0,.683-.384,1.822,1.822,0,0,0,.255-1.022V9.941l-.48.023a1.091,1.091,0,0,0-.782.3,1.188,1.188,0,0,0-.249.82Q45.6,11.9,46.179,11.9ZM44.632,4.779a.74.74,0,0,1,.205-.557.781.781,0,0,1,.568-.2.772.772,0,0,1,.571.208.741.741,0,0,1,.208.548.723.723,0,0,1-.208.539.778.778,0,0,1-.571.205.788.788,0,0,1-.568-.2A.722.722,0,0,1,44.632,4.779Zm2.332,0a.742.742,0,0,1,.205-.554.783.783,0,0,1,.574-.2.794.794,0,0,1,.568.2.729.729,0,0,1,.211.557.719.719,0,0,1-.208.545.913.913,0,0,1-1.143,0A.721.721,0,0,1,46.964,4.779ZM53.187,13V9.109a2.628,2.628,0,0,0-.17-1.072.571.571,0,0,0-.551-.363.773.773,0,0,0-.738.5,4.34,4.34,0,0,0-.234,1.69V13H49.935V6.473h1.236l.188.838h.1a1.611,1.611,0,0,1,1.523-.961,1.539,1.539,0,0,1,1.333.609,3.011,3.011,0,0,1,.442,1.781V13Zm7.529-6.516V7.4l-.779.176a2.1,2.1,0,0,1,.229,1.031,2.247,2.247,0,0,1-.562,1.623,2.074,2.074,0,0,1-1.57.586,1.476,1.476,0,0,1-.434-.047,1.913,1.913,0,0,0-.211.223.469.469,0,0,0-.1.3q0,.41.709.41h.943a1.732,1.732,0,0,1,1.28.448,1.835,1.835,0,0,1,.448,1.351,2.139,2.139,0,0,1-.762,1.758,3.391,3.391,0,0,1-2.191.621,2.6,2.6,0,0,1-1.67-.472,1.627,1.627,0,0,1-.586-1.345,1.479,1.479,0,0,1,.334-.958,1.886,1.886,0,0,1,.926-.6,1.125,1.125,0,0,1-.489-.363.912.912,0,0,1-.19-.574,1.049,1.049,0,0,1,.059-.36,1.164,1.164,0,0,1,.167-.3,3.165,3.165,0,0,1,.442-.425,1.666,1.666,0,0,1-.639-.756,2.675,2.675,0,0,1-.234-1.131A2.3,2.3,0,0,1,56.4,6.936a2.129,2.129,0,0,1,1.611-.586,2.756,2.756,0,0,1,.457.044,2.6,2.6,0,0,1,.393.091Zm-3.838,7.465a.74.74,0,0,0,.243.595,1.038,1.038,0,0,0,.694.208,1.745,1.745,0,0,0,1.063-.27.877.877,0,0,0,.354-.738.632.632,0,0,0-.19-.521,1.2,1.2,0,0,0-.712-.152h-.756a.617.617,0,0,0-.507.237A1,1,0,0,0,56.878,13.949Zm.48-5.344q0,1.154.65,1.154.633,0,.633-1.166,0-1.2-.633-1.2Q57.358,7.4,57.358,8.605ZM63.071,13H61.513V6.473h1.559ZM61.448,4.768a.827.827,0,0,1,.226-.612.851.851,0,0,1,.63-.226.782.782,0,0,1,.838.838.806.806,0,0,1-.234.618.847.847,0,0,1-.6.22.871.871,0,0,1-.621-.22A.806.806,0,0,1,61.448,4.768Zm7.658,1.717V7.4l-.779.176a2.1,2.1,0,0,1,.229,1.031,2.247,2.247,0,0,1-.562,1.623,2.074,2.074,0,0,1-1.57.586,1.476,1.476,0,0,1-.434-.047,1.913,1.913,0,0,0-.211.223.469.469,0,0,0-.1.3q0,.41.709.41h.943a1.732,1.732,0,0,1,1.28.448A1.835,1.835,0,0,1,69.06,13.5a2.139,2.139,0,0,1-.762,1.758,3.391,3.391,0,0,1-2.191.621,2.6,2.6,0,0,1-1.67-.472,1.627,1.627,0,0,1-.586-1.345,1.479,1.479,0,0,1,.334-.958,1.886,1.886,0,0,1,.926-.6,1.125,1.125,0,0,1-.489-.363.912.912,0,0,1-.19-.574,1.049,1.049,0,0,1,.059-.36,1.164,1.164,0,0,1,.167-.3,3.165,3.165,0,0,1,.442-.425,1.666,1.666,0,0,1-.639-.756,2.675,2.675,0,0,1-.234-1.131,2.3,2.3,0,0,1,.563-1.658A2.129,2.129,0,0,1,66.4,6.35a2.756,2.756,0,0,1,.457.044,2.6,2.6,0,0,1,.393.091Zm-3.838,7.465a.74.74,0,0,0,.243.595,1.038,1.038,0,0,0,.694.208,1.745,1.745,0,0,0,1.063-.27.877.877,0,0,0,.354-.738.632.632,0,0,0-.19-.521,1.2,1.2,0,0,0-.712-.152h-.756a.617.617,0,0,0-.507.237A1,1,0,0,0,65.269,13.949Zm.48-5.344q0,1.154.65,1.154.633,0,.633-1.166,0-1.2-.633-1.2Q65.749,7.4,65.749,8.605ZM72.3,13.117a2.352,2.352,0,0,1-1.931-.87,3.817,3.817,0,0,1-.706-2.464A4.335,4.335,0,0,1,70.3,7.258a2.055,2.055,0,0,1,1.781-.908,2.03,2.03,0,0,1,1.682.776A3.425,3.425,0,0,1,74.38,9.3v.832H71.245a2.129,2.129,0,0,0,.357,1.3,1.135,1.135,0,0,0,.938.425,3.038,3.038,0,0,0,1.559-.475v1.283A3.426,3.426,0,0,1,72.3,13.117Zm-.229-5.566a.636.636,0,0,0-.551.354A2.385,2.385,0,0,0,71.269,9h1.582a2.363,2.363,0,0,0-.217-1.084A.625.625,0,0,0,72.071,7.551Zm6.123-1.2a1.839,1.839,0,0,1,.563.088l-.182,1.512a1.3,1.3,0,0,0-.428-.059.992.992,0,0,0-.873.448,2.318,2.318,0,0,0-.3,1.3V13H75.411V6.473h1.283l.176,1.02h.053a2.367,2.367,0,0,1,.563-.879A1.05,1.05,0,0,1,78.194,6.35ZM29.632,28V19.434h1.5V28Zm4.934.117a1.591,1.591,0,0,1-1.424-.891,4.926,4.926,0,0,1-.521-2.479,5.1,5.1,0,0,1,.51-2.5,1.56,1.56,0,0,1,1.406-.9,1.343,1.343,0,0,1,.771.22,2,2,0,0,1,.6.741H36q-.07-.891-.07-1.248v-2.18h1.559V28h-1.16l-.264-.85h-.053A1.566,1.566,0,0,1,34.565,28.117Zm.5-1.318a.663.663,0,0,0,.633-.4,3.7,3.7,0,0,0,.217-1.438V24.76a4.417,4.417,0,0,0-.2-1.6.686.686,0,0,0-.665-.463q-.434,0-.63.53a4.669,4.669,0,0,0-.2,1.544,4.391,4.391,0,0,0,.2,1.521A.677.677,0,0,0,35.069,26.8Zm6.141,1.318a2.352,2.352,0,0,1-1.931-.87,3.817,3.817,0,0,1-.706-2.464,4.335,4.335,0,0,1,.639-2.525,2.055,2.055,0,0,1,1.781-.908,2.03,2.03,0,0,1,1.682.776A3.425,3.425,0,0,1,43.29,24.3v.832H40.155a2.129,2.129,0,0,0,.357,1.3,1.135,1.135,0,0,0,.938.425,3.038,3.038,0,0,0,1.559-.475v1.283A3.426,3.426,0,0,1,41.21,28.117Zm-.229-5.566a.636.636,0,0,0-.551.354,2.385,2.385,0,0,0-.252,1.1h1.582a2.363,2.363,0,0,0-.217-1.084A.625.625,0,0,0,40.981,22.551ZM47.521,28l-.311-.891h-.035a2.214,2.214,0,0,1-.715.791,1.817,1.817,0,0,1-.932.217,1.35,1.35,0,0,1-1.134-.539,2.415,2.415,0,0,1-.413-1.5,1.943,1.943,0,0,1,.565-1.532,2.681,2.681,0,0,1,1.69-.554l.867-.035v-.469q0-.914-.791-.914a2.706,2.706,0,0,0-1.348.457l-.539-1.078a3.882,3.882,0,0,1,2.115-.615,2.029,2.029,0,0,1,1.579.595,2.413,2.413,0,0,1,.542,1.685V28Zm-1.354-1.1a.783.783,0,0,0,.683-.384,1.822,1.822,0,0,0,.255-1.022v-.551l-.48.023a1.091,1.091,0,0,0-.782.3,1.188,1.188,0,0,0-.249.82Q45.593,26.9,46.167,26.9ZM51.481,28H49.923V18.883h1.559Zm2.877,0H52.8V21.473h1.559Zm-1.623-8.232a.827.827,0,0,1,.226-.612.851.851,0,0,1,.63-.226.782.782,0,0,1,.838.838.806.806,0,0,1-.234.618.847.847,0,0,1-.6.22.871.871,0,0,1-.621-.22A.806.806,0,0,1,52.735,19.768ZM59.2,26.09a1.967,1.967,0,0,1-.56,1.491,2.3,2.3,0,0,1-1.649.536,3.06,3.06,0,0,1-1.6-.381V26.383a3.038,3.038,0,0,0,.753.369,2.4,2.4,0,0,0,.759.146.78.78,0,0,0,.554-.179.617.617,0,0,0,.19-.472.757.757,0,0,0-.2-.521,3.392,3.392,0,0,0-.732-.545,3.005,3.005,0,0,1-1.017-.9,2.037,2.037,0,0,1-.308-1.128,1.641,1.641,0,0,1,.571-1.318,2.341,2.341,0,0,1,1.567-.486,3.143,3.143,0,0,1,1.635.457l-.51,1.119a2.383,2.383,0,0,0-1.1-.34.588.588,0,0,0-.448.158.542.542,0,0,0-.149.387.681.681,0,0,0,.185.469,3.238,3.238,0,0,0,.688.51,4.389,4.389,0,0,1,.855.627,1.871,1.871,0,0,1,.381.586A2.011,2.011,0,0,1,59.2,26.09Zm3.252.709a1.8,1.8,0,0,0,.709-.164v1.219a2.016,2.016,0,0,1-1.143.264,1.524,1.524,0,0,1-1.26-.507,2.382,2.382,0,0,1-.41-1.521V22.709h-.633v-.7l.814-.562.4-1.383h1v1.406h1.184v1.236H61.923v3.434Q61.923,26.8,62.45,26.8Z" transform="translate(635 4)" fill="#0c3f6c"/>
    <path id="Контур_4889" data-name="Контур 4889" d="M17.222,13V4.434h1.5V13Zm6.469,0V9.109a2.628,2.628,0,0,0-.17-1.072.571.571,0,0,0-.551-.363.773.773,0,0,0-.738.5A4.34,4.34,0,0,0,22,9.865V13H20.438V6.473h1.236l.188.838h.1a1.611,1.611,0,0,1,1.523-.961,1.539,1.539,0,0,1,1.333.609,3.011,3.011,0,0,1,.442,1.781V13Zm4.547.117a1.591,1.591,0,0,1-1.424-.891,4.926,4.926,0,0,1-.521-2.479,5.1,5.1,0,0,1,.51-2.5,1.56,1.56,0,0,1,1.406-.9,1.343,1.343,0,0,1,.771.22,2,2,0,0,1,.6.741h.094q-.07-.891-.07-1.248V3.883h1.559V13H30l-.264-.85h-.053A1.566,1.566,0,0,1,28.237,13.117Zm.5-1.318a.663.663,0,0,0,.633-.4,3.7,3.7,0,0,0,.217-1.438V9.76a4.417,4.417,0,0,0-.2-1.6.686.686,0,0,0-.665-.463q-.434,0-.63.53a4.669,4.669,0,0,0-.2,1.544,4.391,4.391,0,0,0,.2,1.521A.677.677,0,0,0,28.741,11.8Zm5.3,1.2H32.485V6.473h1.559ZM32.421,4.768a.827.827,0,0,1,.226-.612.851.851,0,0,1,.63-.226.782.782,0,0,1,.838.838.806.806,0,0,1-.234.618.847.847,0,0,1-.6.22.871.871,0,0,1-.621-.22A.806.806,0,0,1,32.421,4.768Zm4,8.232L34.718,6.473h1.617l.832,3.779q.053.264.126.771t.091.729h.023q.006-.176.05-.5t.091-.6q.047-.275.9-4.172h1.617L38.356,13ZM42.3,13H40.741V6.473H42.3ZM40.677,4.768a.827.827,0,0,1,.226-.612.851.851,0,0,1,.63-.226.782.782,0,0,1,.838.838.806.806,0,0,1-.234.618.847.847,0,0,1-.6.22.871.871,0,0,1-.621-.22A.806.806,0,0,1,40.677,4.768Zm4.676,8.35a1.591,1.591,0,0,1-1.424-.891,4.926,4.926,0,0,1-.521-2.479,5.1,5.1,0,0,1,.51-2.5,1.56,1.56,0,0,1,1.406-.9,1.343,1.343,0,0,1,.771.22,2,2,0,0,1,.6.741h.094q-.07-.891-.07-1.248V3.883h1.559V13h-1.16l-.264-.85H46.8A1.566,1.566,0,0,1,45.353,13.117Zm.5-1.318a.663.663,0,0,0,.633-.4,3.7,3.7,0,0,0,.217-1.438V9.76a4.417,4.417,0,0,0-.2-1.6.686.686,0,0,0-.665-.463q-.434,0-.63.53a4.669,4.669,0,0,0-.2,1.544,4.391,4.391,0,0,0,.2,1.521A.677.677,0,0,0,45.856,11.8Zm7.26,1.2-.193-.838h-.082a1.659,1.659,0,0,1-1.535.955,1.562,1.562,0,0,1-1.33-.6,2.946,2.946,0,0,1-.451-1.787V6.473H51.1v3.885a2.647,2.647,0,0,0,.17,1.078.571.571,0,0,0,.551.363.768.768,0,0,0,.735-.5A4.414,4.414,0,0,0,52.788,9.6V6.473h1.576V13Zm4.963.117a2.352,2.352,0,0,1-1.931-.87,3.817,3.817,0,0,1-.706-2.464,4.335,4.335,0,0,1,.639-2.525,2.055,2.055,0,0,1,1.781-.908,2.03,2.03,0,0,1,1.682.776A3.425,3.425,0,0,1,60.159,9.3v.832H57.024a2.129,2.129,0,0,0,.357,1.3,1.135,1.135,0,0,0,.938.425,3.038,3.038,0,0,0,1.559-.475v1.283A3.426,3.426,0,0,1,58.079,13.117Zm-.229-5.566a.636.636,0,0,0-.551.354A2.385,2.385,0,0,0,57.048,9H58.63a2.363,2.363,0,0,0-.217-1.084A.625.625,0,0,0,57.851,7.551ZM62.749,13H61.19V3.883h1.559Zm2.865,0H64.056V3.883h1.559Zm3.715.117a2.352,2.352,0,0,1-1.931-.87,3.817,3.817,0,0,1-.706-2.464,4.335,4.335,0,0,1,.639-2.525,2.055,2.055,0,0,1,1.781-.908,2.03,2.03,0,0,1,1.682.776A3.425,3.425,0,0,1,71.409,9.3v.832H68.274a2.129,2.129,0,0,0,.357,1.3,1.135,1.135,0,0,0,.938.425,3.038,3.038,0,0,0,1.559-.475v1.283A3.426,3.426,0,0,1,69.329,13.117ZM69.1,7.551a.636.636,0,0,0-.551.354A2.385,2.385,0,0,0,68.3,9H69.88a2.363,2.363,0,0,0-.217-1.084A.625.625,0,0,0,69.1,7.551Zm6.123-1.2a1.839,1.839,0,0,1,.563.088L75.6,7.949a1.3,1.3,0,0,0-.428-.059.992.992,0,0,0-.873.448,2.318,2.318,0,0,0-.3,1.3V13H72.44V6.473h1.283l.176,1.02h.053a2.367,2.367,0,0,1,.563-.879A1.05,1.05,0,0,1,75.224,6.35ZM25.091,28h-1.7l-1.406-3.662-.639.639V28H19.753V19.434h1.594v4.248L21.9,22.4l1.459-2.965h1.705l-1.98,3.709Zm3.445-6.65a1.839,1.839,0,0,1,.563.088l-.182,1.512a1.3,1.3,0,0,0-.428-.059.992.992,0,0,0-.873.448,2.318,2.318,0,0,0-.3,1.3V28H25.753V21.473h1.283l.176,1.02h.053a2.367,2.367,0,0,1,.563-.879A1.05,1.05,0,0,1,28.536,21.35ZM33,28l-.311-.891h-.035a2.214,2.214,0,0,1-.715.791,1.817,1.817,0,0,1-.932.217,1.35,1.35,0,0,1-1.134-.539,2.415,2.415,0,0,1-.413-1.5,1.943,1.943,0,0,1,.565-1.532,2.681,2.681,0,0,1,1.69-.554l.867-.035v-.469q0-.914-.791-.914a2.706,2.706,0,0,0-1.348.457L29.9,21.953a3.882,3.882,0,0,1,2.115-.615,2.029,2.029,0,0,1,1.579.595,2.413,2.413,0,0,1,.542,1.685V28Zm-1.354-1.1a.783.783,0,0,0,.683-.384,1.822,1.822,0,0,0,.255-1.022v-.551l-.48.023a1.091,1.091,0,0,0-.782.3,1.188,1.188,0,0,0-.249.82Q31.067,26.9,31.642,26.9ZM38.3,22.709H37.22V28H35.661V22.709h-.756V21.93l.756-.469v-.492a2.456,2.456,0,0,1,.451-1.62,1.809,1.809,0,0,1,1.453-.53,2.668,2.668,0,0,1,1.178.264l-.41,1.189a1.368,1.368,0,0,0-.6-.141.421.421,0,0,0-.393.211,1.331,1.331,0,0,0-.123.65v.48H38.3Zm2.953,4.09a1.8,1.8,0,0,0,.709-.164v1.219a2.016,2.016,0,0,1-1.143.264,1.524,1.524,0,0,1-1.26-.507,2.382,2.382,0,0,1-.41-1.521V22.709h-.633v-.7l.814-.562.4-1.383h1v1.406h1.184v1.236H40.724v3.434Q40.724,26.8,41.251,26.8Zm3.891,0a1.8,1.8,0,0,0,.709-.164v1.219a2.016,2.016,0,0,1-1.143.264,1.524,1.524,0,0,1-1.26-.507,2.382,2.382,0,0,1-.41-1.521V22.709h-.633v-.7l.814-.562.4-1.383h1v1.406H45.8v1.236H44.614v3.434Q44.614,26.8,45.142,26.8ZM49.964,28l-.311-.891h-.035a2.214,2.214,0,0,1-.715.791,1.817,1.817,0,0,1-.932.217,1.35,1.35,0,0,1-1.134-.539,2.415,2.415,0,0,1-.413-1.5,1.943,1.943,0,0,1,.565-1.532,2.681,2.681,0,0,1,1.69-.554l.867-.035v-.469q0-.914-.791-.914a2.706,2.706,0,0,0-1.348.457l-.539-1.078a3.882,3.882,0,0,1,2.115-.615,2.029,2.029,0,0,1,1.579.595,2.413,2.413,0,0,1,.542,1.685V28ZM48.61,26.9a.783.783,0,0,0,.683-.384,1.822,1.822,0,0,0,.255-1.022v-.551l-.48.023a1.091,1.091,0,0,0-.782.3,1.188,1.188,0,0,0-.249.82Q48.036,26.9,48.61,26.9ZM55.618,28V24.109a2.628,2.628,0,0,0-.17-1.072.571.571,0,0,0-.551-.363.773.773,0,0,0-.738.5,4.34,4.34,0,0,0-.234,1.69V28H52.366V21.473H53.6l.188.838h.1a1.611,1.611,0,0,1,1.523-.961,1.539,1.539,0,0,1,1.333.609,3.011,3.011,0,0,1,.442,1.781V28Zm4.365-3.516.393-.779,1.289-2.232h1.652L61.665,24.15,63.429,28H61.794l-1.178-2.76-.609.551V28H58.448V18.883h1.559v4.295l-.07,1.307Zm6.527,3.633a2.352,2.352,0,0,1-1.931-.87,3.817,3.817,0,0,1-.706-2.464,4.335,4.335,0,0,1,.639-2.525,2.055,2.055,0,0,1,1.781-.908,2.03,2.03,0,0,1,1.682.776,3.425,3.425,0,0,1,.615,2.177v.832H65.456a2.129,2.129,0,0,0,.357,1.3,1.135,1.135,0,0,0,.938.425,3.038,3.038,0,0,0,1.559-.475v1.283A3.426,3.426,0,0,1,66.511,28.117Zm-.229-5.566a.636.636,0,0,0-.551.354,2.385,2.385,0,0,0-.252,1.1h1.582a2.363,2.363,0,0,0-.217-1.084A.625.625,0,0,0,66.282,22.551Zm6.123-1.2a1.839,1.839,0,0,1,.563.088l-.182,1.512a1.3,1.3,0,0,0-.428-.059.992.992,0,0,0-.873.448,2.318,2.318,0,0,0-.3,1.3V28H69.622V21.473h1.283l.176,1.02h.053a2.367,2.367,0,0,1,.563-.879A1.05,1.05,0,0,1,72.405,21.35Z" transform="translate(72 67)" fill="#0c3f6c"/>
    <path id="Контур_4896" data-name="Контур 4896" d="M15.482,8.248H18.1v4.395a5.973,5.973,0,0,1-2.367.475,2.65,2.65,0,0,1-2.3-1.137,5.625,5.625,0,0,1-.806-3.275,5.076,5.076,0,0,1,.923-3.229,3.105,3.105,0,0,1,2.581-1.166,3.916,3.916,0,0,1,1.957.527l-.5,1.3a2.732,2.732,0,0,0-1.359-.422,1.639,1.639,0,0,0-1.438.812,4.006,4.006,0,0,0-.53,2.212,5.067,5.067,0,0,0,.384,2.209,1.207,1.207,0,0,0,1.116.768,3.229,3.229,0,0,0,.785-.1V9.654H15.482Zm6.24,4.869a2.352,2.352,0,0,1-1.931-.87,3.817,3.817,0,0,1-.706-2.464,4.335,4.335,0,0,1,.639-2.525,2.055,2.055,0,0,1,1.781-.908,2.03,2.03,0,0,1,1.682.776A3.425,3.425,0,0,1,23.8,9.3v.832H20.668a2.129,2.129,0,0,0,.357,1.3,1.135,1.135,0,0,0,.938.425,3.038,3.038,0,0,0,1.559-.475v1.283A3.426,3.426,0,0,1,21.723,13.117Zm-.229-5.566a.636.636,0,0,0-.551.354A2.385,2.385,0,0,0,20.691,9h1.582a2.363,2.363,0,0,0-.217-1.084A.625.625,0,0,0,21.494,7.551Zm6.844,3.539a1.967,1.967,0,0,1-.56,1.491,2.3,2.3,0,0,1-1.649.536,3.06,3.06,0,0,1-1.6-.381V11.383a3.038,3.038,0,0,0,.753.369,2.4,2.4,0,0,0,.759.146.78.78,0,0,0,.554-.179.617.617,0,0,0,.19-.472.757.757,0,0,0-.2-.521,3.392,3.392,0,0,0-.732-.545,3.005,3.005,0,0,1-1.017-.9,2.037,2.037,0,0,1-.308-1.128A1.641,1.641,0,0,1,25.1,6.836a2.341,2.341,0,0,1,1.567-.486,3.143,3.143,0,0,1,1.635.457l-.51,1.119a2.383,2.383,0,0,0-1.1-.34.588.588,0,0,0-.448.158.542.542,0,0,0-.149.387.681.681,0,0,0,.185.469,3.238,3.238,0,0,0,.688.51,4.389,4.389,0,0,1,.855.627,1.871,1.871,0,0,1,.381.586A2.011,2.011,0,0,1,28.338,11.09Zm3.393,2.027a2.352,2.352,0,0,1-1.931-.87,3.817,3.817,0,0,1-.706-2.464,4.335,4.335,0,0,1,.639-2.525,2.055,2.055,0,0,1,1.781-.908,2.03,2.03,0,0,1,1.682.776A3.425,3.425,0,0,1,33.811,9.3v.832H30.676a2.129,2.129,0,0,0,.357,1.3,1.135,1.135,0,0,0,.938.425,3.038,3.038,0,0,0,1.559-.475v1.283A3.426,3.426,0,0,1,31.73,13.117ZM31.5,7.551a.636.636,0,0,0-.551.354A2.385,2.385,0,0,0,30.7,9h1.582a2.363,2.363,0,0,0-.217-1.084A.625.625,0,0,0,31.5,7.551ZM36.4,13H34.842V3.883H36.4Zm2.865,0H37.707V3.883h1.559Zm2.877,0H40.584V6.473h1.559ZM40.52,4.768a.827.827,0,0,1,.226-.612.851.851,0,0,1,.63-.226.782.782,0,0,1,.838.838.806.806,0,0,1-.234.618.847.847,0,0,1-.6.22.871.871,0,0,1-.621-.22A.806.806,0,0,1,40.52,4.768Zm7.658,1.717V7.4l-.779.176a2.1,2.1,0,0,1,.229,1.031,2.247,2.247,0,0,1-.562,1.623,2.074,2.074,0,0,1-1.57.586,1.476,1.476,0,0,1-.434-.047,1.913,1.913,0,0,0-.211.223.469.469,0,0,0-.1.3q0,.41.709.41H46.4a1.732,1.732,0,0,1,1.28.448,1.835,1.835,0,0,1,.448,1.351,2.139,2.139,0,0,1-.762,1.758,3.391,3.391,0,0,1-2.191.621,2.6,2.6,0,0,1-1.67-.472,1.627,1.627,0,0,1-.586-1.345,1.479,1.479,0,0,1,.334-.958,1.886,1.886,0,0,1,.926-.6,1.125,1.125,0,0,1-.489-.363.912.912,0,0,1-.19-.574,1.049,1.049,0,0,1,.059-.36,1.164,1.164,0,0,1,.167-.3,3.165,3.165,0,0,1,.442-.425,1.666,1.666,0,0,1-.639-.756A2.675,2.675,0,0,1,43.3,8.594a2.3,2.3,0,0,1,.563-1.658,2.129,2.129,0,0,1,1.611-.586,2.756,2.756,0,0,1,.457.044,2.6,2.6,0,0,1,.393.091ZM44.34,13.949a.74.74,0,0,0,.243.595,1.038,1.038,0,0,0,.694.208,1.745,1.745,0,0,0,1.063-.27.877.877,0,0,0,.354-.738.632.632,0,0,0-.19-.521,1.2,1.2,0,0,0-.712-.152h-.756a.617.617,0,0,0-.507.237A1,1,0,0,0,44.34,13.949Zm.48-5.344q0,1.154.65,1.154.633,0,.633-1.166,0-1.2-.633-1.2Q44.82,7.4,44.82,8.605Zm6.551,4.512a2.352,2.352,0,0,1-1.931-.87,3.817,3.817,0,0,1-.706-2.464,4.335,4.335,0,0,1,.639-2.525,2.055,2.055,0,0,1,1.781-.908,2.03,2.03,0,0,1,1.682.776A3.425,3.425,0,0,1,53.451,9.3v.832H50.316a2.129,2.129,0,0,0,.357,1.3,1.135,1.135,0,0,0,.938.425,3.038,3.038,0,0,0,1.559-.475v1.283A3.426,3.426,0,0,1,51.371,13.117Zm-.229-5.566a.636.636,0,0,0-.551.354A2.385,2.385,0,0,0,50.34,9h1.582a2.363,2.363,0,0,0-.217-1.084A.625.625,0,0,0,51.143,7.551Zm6.123-1.2a1.839,1.839,0,0,1,.563.088l-.182,1.512a1.3,1.3,0,0,0-.428-.059.992.992,0,0,0-.873.448,2.318,2.318,0,0,0-.3,1.3V13H54.482V6.473h1.283l.176,1.02h.053a2.367,2.367,0,0,1,.563-.879A1.05,1.05,0,0,1,57.266,6.35ZM20.261,28H18.667V24.244h-2.1V28H14.97V19.434h1.594v3.4h2.1v-3.4h1.594Zm3.826.117a2.352,2.352,0,0,1-1.931-.87,3.817,3.817,0,0,1-.706-2.464,4.335,4.335,0,0,1,.639-2.525,2.055,2.055,0,0,1,1.781-.908,2.03,2.03,0,0,1,1.682.776,3.425,3.425,0,0,1,.615,2.177v.832H23.032a2.129,2.129,0,0,0,.357,1.3,1.135,1.135,0,0,0,.938.425,3.038,3.038,0,0,0,1.559-.475v1.283A3.426,3.426,0,0,1,24.087,28.117Zm-.229-5.566a.636.636,0,0,0-.551.354,2.385,2.385,0,0,0-.252,1.1h1.582a2.363,2.363,0,0,0-.217-1.084A.625.625,0,0,0,23.858,22.551Zm5.057,5.566a1.591,1.591,0,0,1-1.424-.891,4.926,4.926,0,0,1-.521-2.479,5.1,5.1,0,0,1,.51-2.5,1.56,1.56,0,0,1,1.406-.9,1.343,1.343,0,0,1,.771.22,2,2,0,0,1,.6.741h.094q-.07-.891-.07-1.248v-2.18h1.559V28h-1.16l-.264-.85h-.053A1.566,1.566,0,0,1,28.915,28.117Zm.5-1.318a.663.663,0,0,0,.633-.4,3.7,3.7,0,0,0,.217-1.438V24.76a4.417,4.417,0,0,0-.2-1.6A.686.686,0,0,0,29.4,22.7q-.434,0-.63.53a4.669,4.669,0,0,0-.2,1.544,4.391,4.391,0,0,0,.2,1.521A.677.677,0,0,0,29.419,26.8Zm8.566-2.074a4.048,4.048,0,0,1-.68,2.5,2.371,2.371,0,0,1-3.187.483,2.6,2.6,0,0,1-.885-1.181,4.8,4.8,0,0,1-.311-1.8,4.042,4.042,0,0,1,.674-2.481,2.209,2.209,0,0,1,1.869-.894,2.177,2.177,0,0,1,1.837.911A4.018,4.018,0,0,1,37.985,24.725Zm-3.469,0a4.1,4.1,0,0,0,.223,1.541.746.746,0,0,0,.715.521q.938,0,.938-2.062a3.958,3.958,0,0,0-.226-1.532.755.755,0,0,0-1.427,0A4,4,0,0,0,34.517,24.725ZM42.333,28V24.109a2.628,2.628,0,0,0-.17-1.072.571.571,0,0,0-.551-.363.773.773,0,0,0-.738.5,4.34,4.34,0,0,0-.234,1.69V28H39.081V21.473h1.236l.188.838h.1a1.611,1.611,0,0,1,1.523-.961,1.539,1.539,0,0,1,1.333.609A3.011,3.011,0,0,1,43.9,23.74V28Zm4.4,0H45.175V21.473h1.559ZM45.11,19.768a.827.827,0,0,1,.226-.612.851.851,0,0,1,.63-.226.782.782,0,0,1,.838.838.806.806,0,0,1-.234.618.847.847,0,0,1-.6.22.871.871,0,0,1-.621-.22A.806.806,0,0,1,45.11,19.768Zm6.463,6.322a1.967,1.967,0,0,1-.56,1.491,2.3,2.3,0,0,1-1.649.536,3.06,3.06,0,0,1-1.6-.381V26.383a3.038,3.038,0,0,0,.753.369,2.4,2.4,0,0,0,.759.146.78.78,0,0,0,.554-.179.617.617,0,0,0,.19-.472.757.757,0,0,0-.2-.521,3.392,3.392,0,0,0-.732-.545,3.005,3.005,0,0,1-1.017-.9,2.037,2.037,0,0,1-.308-1.128,1.641,1.641,0,0,1,.571-1.318A2.341,2.341,0,0,1,49.9,21.35a3.143,3.143,0,0,1,1.635.457l-.51,1.119a2.383,2.383,0,0,0-1.1-.34.588.588,0,0,0-.448.158.542.542,0,0,0-.149.387.681.681,0,0,0,.185.469,3.238,3.238,0,0,0,.688.51,4.389,4.389,0,0,1,.855.627,1.871,1.871,0,0,1,.381.586A2.011,2.011,0,0,1,51.573,26.09Zm3.252.709a1.8,1.8,0,0,0,.709-.164v1.219a2.016,2.016,0,0,1-1.143.264,1.524,1.524,0,0,1-1.26-.507,2.382,2.382,0,0,1-.41-1.521V22.709h-.633v-.7l.814-.562.4-1.383h1v1.406h1.184v1.236H54.3v3.434Q54.3,26.8,54.825,26.8Z" transform="translate(579 68)" fill="#0c3f6c"/>
    <path id="Контур_4895" data-name="Контур 4895" d="M24.859,13,23.23,5.705h-.064a11.9,11.9,0,0,1,.111,1.547V13H21.8V4.434H24.25l1.465,6.732h.047l1.453-6.732H29.7V13H28.188V7.193a13.684,13.684,0,0,1,.082-1.477h-.047L26.6,13ZM35.951,9.725a4.048,4.048,0,0,1-.68,2.5,2.371,2.371,0,0,1-3.187.483,2.6,2.6,0,0,1-.885-1.181,4.8,4.8,0,0,1-.311-1.8,4.042,4.042,0,0,1,.674-2.481,2.209,2.209,0,0,1,1.869-.894,2.177,2.177,0,0,1,1.837.911A4.018,4.018,0,0,1,35.951,9.725Zm-3.469,0a4.1,4.1,0,0,0,.223,1.541.746.746,0,0,0,.715.521q.938,0,.938-2.062a3.958,3.958,0,0,0-.226-1.532.755.755,0,0,0-1.427,0A4,4,0,0,0,32.482,9.725Zm6.281,3.393a1.591,1.591,0,0,1-1.424-.891,4.926,4.926,0,0,1-.521-2.479,5.1,5.1,0,0,1,.51-2.5,1.56,1.56,0,0,1,1.406-.9,1.343,1.343,0,0,1,.771.22,2,2,0,0,1,.6.741H40.2q-.07-.891-.07-1.248V3.883h1.559V13h-1.16l-.264-.85h-.053A1.566,1.566,0,0,1,38.764,13.117Zm.5-1.318a.663.663,0,0,0,.633-.4,3.7,3.7,0,0,0,.217-1.438V9.76a4.417,4.417,0,0,0-.2-1.6A.686.686,0,0,0,39.25,7.7q-.434,0-.63.53a4.669,4.669,0,0,0-.2,1.544,4.391,4.391,0,0,0,.2,1.521A.677.677,0,0,0,39.268,11.8Zm6.141,1.318a2.352,2.352,0,0,1-1.931-.87,3.817,3.817,0,0,1-.706-2.464,4.335,4.335,0,0,1,.639-2.525,2.055,2.055,0,0,1,1.781-.908,2.03,2.03,0,0,1,1.682.776A3.425,3.425,0,0,1,47.488,9.3v.832H44.354a2.129,2.129,0,0,0,.357,1.3,1.135,1.135,0,0,0,.938.425,3.038,3.038,0,0,0,1.559-.475v1.283A3.426,3.426,0,0,1,45.408,13.117ZM45.18,7.551a.636.636,0,0,0-.551.354A2.385,2.385,0,0,0,44.377,9h1.582a2.363,2.363,0,0,0-.217-1.084A.625.625,0,0,0,45.18,7.551ZM51.3,6.35a1.839,1.839,0,0,1,.563.088l-.182,1.512a1.3,1.3,0,0,0-.428-.059.992.992,0,0,0-.873.448,2.318,2.318,0,0,0-.3,1.3V13H48.52V6.473H49.8l.176,1.02h.053a2.367,2.367,0,0,1,.563-.879A1.05,1.05,0,0,1,51.3,6.35ZM55.762,13l-.311-.891h-.035a2.214,2.214,0,0,1-.715.791,1.817,1.817,0,0,1-.932.217,1.35,1.35,0,0,1-1.134-.539,2.415,2.415,0,0,1-.413-1.5,1.943,1.943,0,0,1,.565-1.532,2.681,2.681,0,0,1,1.69-.554l.867-.035V8.488q0-.914-.791-.914a2.706,2.706,0,0,0-1.348.457l-.539-1.078a3.882,3.882,0,0,1,2.115-.615,2.029,2.029,0,0,1,1.579.595A2.413,2.413,0,0,1,56.9,8.617V13Zm-1.354-1.1a.783.783,0,0,0,.683-.384,1.822,1.822,0,0,0,.255-1.022V9.941l-.48.023a1.091,1.091,0,0,0-.782.3,1.188,1.188,0,0,0-.249.82Q53.834,11.9,54.408,11.9Zm6.023-.1a1.8,1.8,0,0,0,.709-.164v1.219A2.016,2.016,0,0,1,60,13.117a1.524,1.524,0,0,1-1.26-.507,2.382,2.382,0,0,1-.41-1.521V7.709H57.7v-.7l.814-.562.4-1.383h1V6.473h1.184V7.709H59.9v3.434Q59.9,11.8,60.432,11.8Zm4.031,1.318a2.352,2.352,0,0,1-1.931-.87,3.817,3.817,0,0,1-.706-2.464,4.335,4.335,0,0,1,.639-2.525,2.055,2.055,0,0,1,1.781-.908,2.03,2.03,0,0,1,1.682.776A3.425,3.425,0,0,1,66.543,9.3v.832H63.408a2.129,2.129,0,0,0,.357,1.3,1.135,1.135,0,0,0,.938.425,3.038,3.038,0,0,0,1.559-.475v1.283A3.426,3.426,0,0,1,64.463,13.117Zm-.229-5.566a.636.636,0,0,0-.551.354A2.385,2.385,0,0,0,63.432,9h1.582A2.363,2.363,0,0,0,64.8,7.92.625.625,0,0,0,64.234,7.551Zm6.123-1.2a1.839,1.839,0,0,1,.563.088l-.182,1.512a1.3,1.3,0,0,0-.428-.059.992.992,0,0,0-.873.448,2.318,2.318,0,0,0-.3,1.3V13H67.574V6.473h1.283l.176,1.02h.053a2.367,2.367,0,0,1,.563-.879A1.05,1.05,0,0,1,70.357,6.35ZM17.752,28V19.434h1.5V28Zm6.469,0V24.109a2.628,2.628,0,0,0-.17-1.072.571.571,0,0,0-.551-.363.773.773,0,0,0-.738.5,4.34,4.34,0,0,0-.234,1.69V28H20.969V21.473h1.236l.188.838h.1a1.611,1.611,0,0,1,1.523-.961,1.539,1.539,0,0,1,1.333.609,3.011,3.011,0,0,1,.442,1.781V28Zm4.547.117a1.591,1.591,0,0,1-1.424-.891,4.926,4.926,0,0,1-.521-2.479,5.1,5.1,0,0,1,.51-2.5,1.56,1.56,0,0,1,1.406-.9,1.343,1.343,0,0,1,.771.22,2,2,0,0,1,.6.741H30.2q-.07-.891-.07-1.248v-2.18h1.559V28h-1.16l-.264-.85h-.053A1.566,1.566,0,0,1,28.768,28.117Zm.5-1.318a.663.663,0,0,0,.633-.4,3.7,3.7,0,0,0,.217-1.438V24.76a4.417,4.417,0,0,0-.2-1.6.686.686,0,0,0-.665-.463q-.434,0-.63.53a4.669,4.669,0,0,0-.2,1.544,4.391,4.391,0,0,0,.2,1.521A.677.677,0,0,0,29.271,26.8Zm5.3,1.2H33.016V21.473h1.559Zm-1.623-8.232a.827.827,0,0,1,.226-.612.851.851,0,0,1,.63-.226.782.782,0,0,1,.838.838.806.806,0,0,1-.234.618.847.847,0,0,1-.6.22.871.871,0,0,1-.621-.22A.806.806,0,0,1,32.951,19.768Zm4,8.232-1.705-6.527h1.617l.832,3.779q.053.264.126.771t.091.729h.023q.006-.176.05-.5t.091-.6q.047-.275.9-4.172H40.6L38.887,28Zm5.877,0H41.271V21.473H42.83Zm-1.623-8.232a.827.827,0,0,1,.226-.612.851.851,0,0,1,.63-.226.782.782,0,0,1,.838.838.806.806,0,0,1-.234.618.847.847,0,0,1-.6.22.871.871,0,0,1-.621-.22A.806.806,0,0,1,41.207,19.768Zm4.676,8.35a1.591,1.591,0,0,1-1.424-.891,4.926,4.926,0,0,1-.521-2.479,5.1,5.1,0,0,1,.51-2.5,1.56,1.56,0,0,1,1.406-.9,1.343,1.343,0,0,1,.771.22,2,2,0,0,1,.6.741h.094q-.07-.891-.07-1.248v-2.18h1.559V28h-1.16l-.264-.85H47.33A1.566,1.566,0,0,1,45.883,28.117Zm.5-1.318a.663.663,0,0,0,.633-.4,3.7,3.7,0,0,0,.217-1.438V24.76a4.417,4.417,0,0,0-.2-1.6.686.686,0,0,0-.665-.463q-.434,0-.63.53a4.669,4.669,0,0,0-.2,1.544,4.391,4.391,0,0,0,.2,1.521A.677.677,0,0,0,46.387,26.8Zm7.26,1.2-.193-.838h-.082a1.659,1.659,0,0,1-1.535.955,1.562,1.562,0,0,1-1.33-.6,2.946,2.946,0,0,1-.451-1.787v-4.26h1.576v3.885a2.647,2.647,0,0,0,.17,1.078.571.571,0,0,0,.551.363.768.768,0,0,0,.735-.5,4.414,4.414,0,0,0,.231-1.693V21.473h1.576V28ZM59.4,28l-.311-.891h-.035a2.214,2.214,0,0,1-.715.791,1.817,1.817,0,0,1-.932.217,1.35,1.35,0,0,1-1.134-.539,2.415,2.415,0,0,1-.413-1.5,1.943,1.943,0,0,1,.565-1.532,2.681,2.681,0,0,1,1.69-.554l.867-.035v-.469q0-.914-.791-.914a2.706,2.706,0,0,0-1.348.457l-.539-1.078a3.882,3.882,0,0,1,2.115-.615A2.029,2.029,0,0,1,60,21.933a2.413,2.413,0,0,1,.542,1.685V28Zm-1.354-1.1a.783.783,0,0,0,.683-.384,1.822,1.822,0,0,0,.255-1.022v-.551l-.48.023a1.091,1.091,0,0,0-.782.3,1.188,1.188,0,0,0-.249.82Q57.473,26.9,58.047,26.9ZM63.361,28H61.8V18.883h1.559Zm2.877,0H64.68V21.473h1.559Zm-1.623-8.232a.827.827,0,0,1,.226-.612.851.851,0,0,1,.63-.226.782.782,0,0,1,.838.838.806.806,0,0,1-.234.618.847.847,0,0,1-.6.22.871.871,0,0,1-.621-.22A.806.806,0,0,1,64.615,19.768Zm6.463,6.322a1.967,1.967,0,0,1-.56,1.491,2.3,2.3,0,0,1-1.649.536,3.06,3.06,0,0,1-1.6-.381V26.383a3.038,3.038,0,0,0,.753.369,2.4,2.4,0,0,0,.759.146.78.78,0,0,0,.554-.179.617.617,0,0,0,.19-.472.757.757,0,0,0-.2-.521,3.392,3.392,0,0,0-.732-.545,3.005,3.005,0,0,1-1.017-.9,2.037,2.037,0,0,1-.308-1.128,1.641,1.641,0,0,1,.571-1.318,2.341,2.341,0,0,1,1.567-.486,3.143,3.143,0,0,1,1.635.457l-.51,1.119a2.383,2.383,0,0,0-1.1-.34.588.588,0,0,0-.448.158.542.542,0,0,0-.149.387.681.681,0,0,0,.185.469,3.238,3.238,0,0,0,.688.51,4.389,4.389,0,0,1,.855.627,1.871,1.871,0,0,1,.381.586A2.011,2.011,0,0,1,71.078,26.09Zm3.252.709a1.8,1.8,0,0,0,.709-.164v1.219a2.016,2.016,0,0,1-1.143.264,1.524,1.524,0,0,1-1.26-.507,2.382,2.382,0,0,1-.41-1.521V22.709h-.633v-.7l.814-.562.4-1.383h1v1.406h1.184v1.236H73.8v3.434Q73.8,26.8,74.33,26.8Z" transform="translate(478 33)" fill="#0c3f6c"/>
    <path id="Контур_4887" data-name="Контур 4887" d="M14.24,12.55v-.513a3.2,3.2,0,0,1,.216-1.227,3.811,3.811,0,0,1,.787-1.124,4.038,4.038,0,0,0,.692-.93,2.115,2.115,0,0,0,.15-.857,1.282,1.282,0,0,0-.22-.776.8.8,0,0,0-.7-.3,3.08,3.08,0,0,0-1.663.564l-.688-1.465a4.427,4.427,0,0,1,2.549-.784,2.643,2.643,0,0,1,1.908.67,2.459,2.459,0,0,1,.7,1.864,3.7,3.7,0,0,1-.242,1.417,5.157,5.157,0,0,1-1,1.4,3.848,3.848,0,0,0-.626.824,1.886,1.886,0,0,0-.135.787v.447ZM13.9,15a1.2,1.2,0,0,1,.311-.89,1.225,1.225,0,0,1,.9-.311,1.2,1.2,0,1,1,0,2.4,1.219,1.219,0,0,1-.9-.315A1.2,1.2,0,0,1,13.9,15Z" transform="translate(108 19)" fill="#0c3f6c"/>
    <path id="Контур_4890" data-name="Контур 4890" d="M14.24,12.55v-.513a3.2,3.2,0,0,1,.216-1.227,3.811,3.811,0,0,1,.787-1.124,4.038,4.038,0,0,0,.692-.93,2.115,2.115,0,0,0,.15-.857,1.282,1.282,0,0,0-.22-.776.8.8,0,0,0-.7-.3,3.08,3.08,0,0,0-1.663.564l-.688-1.465a4.427,4.427,0,0,1,2.549-.784,2.643,2.643,0,0,1,1.908.67,2.459,2.459,0,0,1,.7,1.864,3.7,3.7,0,0,1-.242,1.417,5.157,5.157,0,0,1-1,1.4,3.848,3.848,0,0,0-.626.824,1.886,1.886,0,0,0-.135.787v.447ZM13.9,15a1.2,1.2,0,0,1,.311-.89,1.225,1.225,0,0,1,.9-.311,1.2,1.2,0,1,1,0,2.4,1.219,1.219,0,0,1-.9-.315A1.2,1.2,0,0,1,13.9,15Z" transform="translate(31 70)" fill="#0c3f6c"/>
    <path id="Контур_4891" data-name="Контур 4891" d="M14.24,12.55v-.513a3.2,3.2,0,0,1,.216-1.227,3.811,3.811,0,0,1,.787-1.124,4.038,4.038,0,0,0,.692-.93,2.115,2.115,0,0,0,.15-.857,1.282,1.282,0,0,0-.22-.776.8.8,0,0,0-.7-.3,3.08,3.08,0,0,0-1.663.564l-.688-1.465a4.427,4.427,0,0,1,2.549-.784,2.643,2.643,0,0,1,1.908.67,2.459,2.459,0,0,1,.7,1.864,3.7,3.7,0,0,1-.242,1.417,5.157,5.157,0,0,1-1,1.4,3.848,3.848,0,0,0-.626.824,1.886,1.886,0,0,0-.135.787v.447ZM13.9,15a1.2,1.2,0,0,1,.311-.89,1.225,1.225,0,0,1,.9-.311,1.2,1.2,0,1,1,0,2.4,1.219,1.219,0,0,1-.9-.315A1.2,1.2,0,0,1,13.9,15Z" transform="translate(200 80)" fill="#0c3f6c"/>
    <path id="Контур_4892" data-name="Контур 4892" d="M14.24,12.55v-.513a3.2,3.2,0,0,1,.216-1.227,3.811,3.811,0,0,1,.787-1.124,4.038,4.038,0,0,0,.692-.93,2.115,2.115,0,0,0,.15-.857,1.282,1.282,0,0,0-.22-.776.8.8,0,0,0-.7-.3,3.08,3.08,0,0,0-1.663.564l-.688-1.465a4.427,4.427,0,0,1,2.549-.784,2.643,2.643,0,0,1,1.908.67,2.459,2.459,0,0,1,.7,1.864,3.7,3.7,0,0,1-.242,1.417,5.157,5.157,0,0,1-1,1.4,3.848,3.848,0,0,0-.626.824,1.886,1.886,0,0,0-.135.787v.447ZM13.9,15a1.2,1.2,0,0,1,.311-.89,1.225,1.225,0,0,1,.9-.311,1.2,1.2,0,1,1,0,2.4,1.219,1.219,0,0,1-.9-.315A1.2,1.2,0,0,1,13.9,15Z" transform="translate(454 38)" fill="#0c3f6c"/>
    <path id="Контур_4893" data-name="Контур 4893" d="M14.24,12.55v-.513a3.2,3.2,0,0,1,.216-1.227,3.811,3.811,0,0,1,.787-1.124,4.038,4.038,0,0,0,.692-.93,2.115,2.115,0,0,0,.15-.857,1.282,1.282,0,0,0-.22-.776.8.8,0,0,0-.7-.3,3.08,3.08,0,0,0-1.663.564l-.688-1.465a4.427,4.427,0,0,1,2.549-.784,2.643,2.643,0,0,1,1.908.67,2.459,2.459,0,0,1,.7,1.864,3.7,3.7,0,0,1-.242,1.417,5.157,5.157,0,0,1-1,1.4,3.848,3.848,0,0,0-.626.824,1.886,1.886,0,0,0-.135.787v.447ZM13.9,15a1.2,1.2,0,0,1,.311-.89,1.225,1.225,0,0,1,.9-.311,1.2,1.2,0,1,1,0,2.4,1.219,1.219,0,0,1-.9-.315A1.2,1.2,0,0,1,13.9,15Z" transform="translate(591 4)" fill="#0c3f6c"/>
    <path id="Контур_4894" data-name="Контур 4894" d="M14.24,12.55v-.513a3.2,3.2,0,0,1,.216-1.227,3.811,3.811,0,0,1,.787-1.124,4.038,4.038,0,0,0,.692-.93,2.115,2.115,0,0,0,.15-.857,1.282,1.282,0,0,0-.22-.776.8.8,0,0,0-.7-.3,3.08,3.08,0,0,0-1.663.564l-.688-1.465a4.427,4.427,0,0,1,2.549-.784,2.643,2.643,0,0,1,1.908.67,2.459,2.459,0,0,1,.7,1.864,3.7,3.7,0,0,1-.242,1.417,5.157,5.157,0,0,1-1,1.4,3.848,3.848,0,0,0-.626.824,1.886,1.886,0,0,0-.135.787v.447ZM13.9,15a1.2,1.2,0,0,1,.311-.89,1.225,1.225,0,0,1,.9-.311,1.2,1.2,0,1,1,0,2.4,1.219,1.219,0,0,1-.9-.315A1.2,1.2,0,0,1,13.9,15Z" transform="translate(666 75)" fill="#0c3f6c"/>
  </g>
</svg>
