<svg xmlns="http://www.w3.org/2000/svg" width="34.183" height="52.913" viewBox="0 0 34.183 52.913">
  <g id="Illu-Feuer" transform="translate(-89.206 -44.2)">
    <g id="Сгруппировать_1929" data-name="Сгруппировать 1929" transform="translate(89.206 44.2)">
      <g id="Сгруппировать_1922" data-name="Сгруппировать 1922" transform="translate(11.066 35.575)">
        <g id="Сгруппировать_1920" data-name="Сгруппировать 1920">
          <path id="Контур_2243" data-name="Контур 2243" d="M254.069,557.8l14.282,5.2-1.975,6.9L248.9,563.536c.021-.333.506-3.292.624-3.624A3.548,3.548,0,0,1,254.069,557.8Z" transform="translate(-248.9 -557.583)" fill="#7c5a3c"/>
          <path id="Контур_2244" data-name="Контур 2244" d="M271.427,614.538l-14.282-5.2a3.545,3.545,0,0,1-2.328-3.541l17.476,6.361Z" transform="translate(-254.402 -602.459)" fill="#a37966" opacity="0.2"/>
        </g>
        <g id="Сгруппировать_1921" data-name="Сгруппировать 1921" transform="translate(13.361 3.87)">
          <circle id="Эллипс_25" data-name="Эллипс 25" cx="3.548" cy="3.548" r="3.548" transform="translate(0 6.053) rotate(-58.54)" fill="#8e611f"/>
          <circle id="Эллипс_26" data-name="Эллипс 26" cx="3.042" cy="3.042" r="3.042" transform="translate(1.314 2.468) rotate(-10.923)" fill="#af7e37"/>
          <circle id="Эллипс_27" data-name="Эллипс 27" cx="2.023" cy="2.023" r="2.023" transform="translate(2.456 3.348) rotate(-12.727)" fill="#8e611f"/>
          <circle id="Эллипс_28" data-name="Эллипс 28" cx="1.518" cy="1.518" r="1.518" transform="translate(3 3.843) rotate(-16.188)" fill="#af7e37"/>
          <path id="Контур_2245" data-name="Контур 2245" d="M504.884,676.788a.509.509,0,1,0,.651-.3A.5.5,0,0,0,504.884,676.788Z" transform="translate(-500.478 -672.086)" fill="#8e611f"/>
        </g>
      </g>
      <g id="Сгруппировать_1925" data-name="Сгруппировать 1925" transform="translate(0 35.575)">
        <g id="Сгруппировать_1923" data-name="Сгруппировать 1923" transform="translate(3.665)">
          <path id="Контур_2246" data-name="Контур 2246" d="M156.382,557.8,142.1,563l1.719,6.846,17.31-6.167c-.021-.333-.083-3.43-.208-3.763A3.535,3.535,0,0,0,156.382,557.8Z" transform="translate(-142.1 -557.583)" fill="#7c5a3c"/>
          <path id="Контур_2247" data-name="Контур 2247" d="M165.466,614.538l14.282-5.2a3.545,3.545,0,0,0,2.328-3.541L164.6,612.161Z" transform="translate(-163.041 -602.459)" fill="#a37966" opacity="0.2"/>
        </g>
        <g id="Сгруппировать_1924" data-name="Сгруппировать 1924" transform="translate(0 3.868)">
          <circle id="Эллипс_29" data-name="Эллипс 29" cx="3.548" cy="3.548" r="3.548" transform="translate(0 3.703) rotate(-31.46)" fill="#8e611f"/>
          <circle id="Эллипс_30" data-name="Эллипс 30" cx="3.042" cy="3.042" r="3.042" transform="translate(1.316 7.288) rotate(-79.077)" fill="#af7e37"/>
          <circle id="Эллипс_31" data-name="Эллипс 31" cx="2.023" cy="2.023" r="2.023" transform="translate(2.458 6.406) rotate(-77.273)" fill="#8e611f"/>
          <circle id="Эллипс_32" data-name="Эллипс 32" cx="1.518" cy="1.518" r="1.518" transform="translate(3 5.914) rotate(-73.812)" fill="#af7e37"/>
          <path id="Контур_2248" data-name="Контур 2248" d="M153.24,676.788a.509.509,0,1,1-.651-.3A.509.509,0,0,1,153.24,676.788Z" transform="translate(-147.884 -672.084)" fill="#8e611f"/>
        </g>
      </g>
      <g id="Сгруппировать_1928" data-name="Сгруппировать 1928" transform="translate(13.547 37.156)">
        <g id="Сгруппировать_1926" data-name="Сгруппировать 1926">
          <path id="Контур_2249" data-name="Контур 2249" d="M291.975,583.941v8.669H284.9V580.545c.319-.1,3.181-.146,3.527-.146A3.54,3.54,0,0,1,291.975,583.941Z" transform="translate(-284.886 -580.4)" fill="#7c5a3c"/>
          <path id="Контур_2250" data-name="Контур 2250" d="M284.7,594.564V585.9a3.54,3.54,0,0,1,2.536-3.4v12.064Z" transform="translate(-284.7 -582.354)" fill="#a37966" opacity="0.2"/>
        </g>
        <g id="Сгруппировать_1927" data-name="Сгруппировать 1927" transform="translate(0 8.662)">
          <circle id="Эллипс_33" data-name="Эллипс 33" cx="3.548" cy="3.548" r="3.548" fill="#8e611f"/>
          <circle id="Эллипс_34" data-name="Эллипс 34" cx="3.042" cy="3.042" r="3.042" transform="translate(0.506 0.506)" fill="#af7e37"/>
          <circle id="Эллипс_35" data-name="Эллипс 35" cx="2.023" cy="2.023" r="2.023" transform="translate(1.524 1.524)" fill="#8e611f"/>
          <circle id="Эллипс_36" data-name="Эллипс 36" cx="1.518" cy="1.518" r="1.518" transform="translate(2.03 2.03)" fill="#af7e37"/>
          <circle id="Эллипс_37" data-name="Эллипс 37" cx="0.506" cy="0.506" r="0.506" transform="translate(3.042 3.042)" fill="#8e611f"/>
        </g>
      </g>
      <path id="Контур_2251" data-name="Контур 2251" d="M125.3,73.595c0,7.692,6.347,12.258,14.386,12.258,7.442,0,14.385-5.135,14.385-12.847,0-7.29-3.479-9.223-3.479-9.223.3,4.366-2.723,5.363-2.793,5.266-2.1-2.98,1.712-6.139,1.712-10.131,0-10.2-12.473-14.718-12.473-14.718,2.869,3.25,3.014,7.9,3.014,12.085,0,2.813-2.176,6.666-7.137,10.353a7.422,7.422,0,0,0,1.192-3.693c0-2.418-2.391-4.58-4.594-5.786C132.611,65.21,125.3,64.767,125.3,73.595Z" transform="translate(-122.799 -44.2)" fill="#e4516a"/>
      <path id="Контур_2252" data-name="Контур 2252" d="M203.111,301.232c3.188-6.694,10.1-5.031,11.392-13.332a7.335,7.335,0,0,1,1.795,6.195c-.6,3.88-3.562,3.194-4.033,7.442-.215,1.913.852,2.377.852,2.377s-.229-5.024,4.511-4.968c-1.5,1.088-.021,3.007.631,5.474,1.123,4.241-1.414,8.253-7.026,8.253C204.268,312.666,200.291,307.157,203.111,301.232Z" transform="translate(-194.367 -271.013)" fill="#f7ab11"/>
      <path id="Контур_2253" data-name="Контур 2253" d="M237.7,424.412c1.864-4.172,5.855-5.842,6.063-6.812a21.4,21.4,0,0,1-.866,5.412c-.589,1.774-1.3,3.77,1.046,6.112.09-.741,1.587-4.054,4.566-4.747-.8.561-.256,2.689-.256,4.837,0,2.536-1.94,4.172-4.546,4.172C239.264,433.378,235.495,429.345,237.7,424.412Z" transform="translate(-226.806 -391.726)" fill="#fcc306"/>
    </g>
    <path id="Контур_2254" data-name="Контур 2254" d="M286.566,68c.3,4.366-2.723,5.363-2.793,5.266-2.1-2.98,1.712-6.139,1.712-10.131,0-9.022-9.764-13.6-12.009-14.538,2.737,2.183,4.282,5.142,5.28,9.625,2.037,9.105-4.664,18.626-6.652,23.214-1.594,3.673-.416,6.375,1.989,8.572q.738.052,1.5.062h.111c7.428-.014,14.351-5.142,14.351-12.847C290.045,69.929,286.566,68,286.566,68Z" transform="translate(-169.546 -4.095)" fill="#7a1a30" opacity="0.23"/>
  </g>
</svg>
