<svg xmlns="http://www.w3.org/2000/svg" width="57.512" height="52.147" viewBox="0 0 57.512 52.147">
  <g id="Illu-Cocktails" transform="translate(-100.2 -69.3)">
    <g id="Ebene_2" transform="translate(100.2 77.159)">
      <g id="Сгруппировать_1911" data-name="Сгруппировать 1911" transform="translate(0 0)">
        <g id="Сгруппировать_1910" data-name="Сгруппировать 1910" transform="translate(15.356 9.578)">
          <path id="Контур_2211" data-name="Контур 2211" d="M300.3,299.149,314.129,312.4A9.59,9.59,0,0,0,300.3,299.149Z" transform="translate(-300.3 -296.51)" fill="#c27d11"/>
          <path id="Контур_2212" data-name="Контур 2212" d="M306.9,308.011l12.809,12.271A8.884,8.884,0,0,0,306.9,308.011Z" transform="translate(-306.393 -304.889)" fill="#fcf8d4"/>
          <path id="Контур_2213" data-name="Контур 2213" d="M319.8,325.52l10.829,10.368A7.513,7.513,0,0,0,319.8,325.52Z" transform="translate(-318.303 -321.446)" fill="#f7ab11"/>
          <path id="Контур_2214" data-name="Контур 2214" d="M344.7,359.072l6.915,6.623a4.81,4.81,0,0,0-6.915-6.623Z" transform="translate(-341.293 -353.171)" fill="#fcc306"/>
          <path id="Контур_2215" data-name="Контур 2215" d="M378.326,317.3l-4.6,4.8-.576-7.1a.335.335,0,0,0-.668.054l.545,6.715,1.42,1.358,6.984.269a.36.36,0,0,0,.253-.1.337.337,0,0,0-.23-.568l-7.122-.269,4.482-4.674a.338.338,0,0,0-.008-.476A.334.334,0,0,0,378.326,317.3Z" transform="translate(-366.945 -313.29)" fill="#fcf8d4"/>
        </g>
        <path id="Контур_2216" data-name="Контур 2216" d="M135.648,426.507h-19.93l-2.295-19.846L113.2,399.8h24.389l-.092,7.053Z" transform="translate(-112.202 -382.295)" fill="#fff"/>
        <path id="Контур_2217" data-name="Контур 2217" d="M145.621,454.613h-18.48L125.015,439.3,124.8,434h22.624l-.084,5.441Z" transform="translate(-122.912 -413.87)" fill="#f7ab11"/>
        <path id="Контур_2218" data-name="Контур 2218" d="M136.289,434H124.8l.215,5.3,2.126,15.318h9.148Z" transform="translate(-122.912 -413.87)" fill="#fcc306"/>
        <path id="Контур_2219" data-name="Контур 2219" d="M150.582,421.686l1.358-.123L147.389,399.1H146Z" transform="translate(-142.485 -381.648)" fill="#b61f34"/>
        <path id="Контур_2220" data-name="Контур 2220" d="M185.755,444.672a.934.934,0,0,1-1.274.315l-4.85-2.939a.934.934,0,0,1-.315-1.274l2.939-4.843a.934.934,0,0,1,1.274-.315l4.843,2.939a.934.934,0,0,1,.315,1.274Z" transform="translate(-173.123 -415.24)" fill="#ffe675"/>
        <path id="Контур_2221" data-name="Контур 2221" d="M153.508,555.363a.923.923,0,0,1-1.059.775l-5.6-.852a.928.928,0,0,1-.775-1.059l.852-5.6a.923.923,0,0,1,1.059-.775l5.6.852a.934.934,0,0,1,.783,1.059Z" transform="translate(-142.541 -518.971)" fill="#ffdb58"/>
        <path id="Контур_2222" data-name="Контур 2222" d="M105.1,189.152,101.566,171.7l-1.366.123,3.515,17.329Z" transform="translate(-100.2 -171.7)" fill="#d51130"/>
        <path id="Контур_2223" data-name="Контур 2223" d="M294.549,526.757a.883.883,0,0,1-.414,1.174l-4.866,2.318a.883.883,0,0,1-1.174-.414l-2.318-4.866a.883.883,0,0,1,.414-1.174l4.866-2.318a.883.883,0,0,1,1.174.414Z" transform="translate(-271.457 -494.555)" fill="#ffdb58"/>
        <path id="Контур_2224" data-name="Контур 2224" d="M311.445,410.6a.946.946,0,0,1,.668,1.159l-1.512,5.579a.946.946,0,0,1-1.159.668l-5.579-1.5a.946.946,0,0,1-.668-1.159l1.512-5.579a.946.946,0,0,1,1.159-.668Z" transform="translate(-287.585 -390.845)" fill="#ffe87f"/>
      </g>
    </g>
    <g id="Ebene_3" transform="translate(122.479 69.3)">
      <g id="Сгруппировать_1919" data-name="Сгруппировать 1919" transform="translate(0 0)">
        <g id="Сгруппировать_1916" data-name="Сгруппировать 1916" transform="translate(22.785)">
          <path id="Контур_2225" data-name="Контур 2225" d="M699.848,75.731a6.227,6.227,0,1,1-6.224-6.431A6.329,6.329,0,0,1,699.848,75.731Z" transform="translate(-687.4 -69.3)" fill="#76992c"/>
          <path id="Контур_2226" data-name="Контур 2226" d="M704.927,81.455a5.767,5.767,0,1,1-5.763-5.955A5.859,5.859,0,0,1,704.927,81.455Z" transform="translate(-692.94 -75.024)" fill="#fcf8d4"/>
          <path id="Контур_2227" data-name="Контур 2227" d="M714.346,92.534a4.876,4.876,0,1,1-4.873-5.034A4.951,4.951,0,0,1,714.346,92.534Z" transform="translate(-703.28 -86.103)" fill="#aabd49" opacity="0.43"/>
          <path id="Контур_2228" data-name="Контур 2228" d="M733.432,113.723a3.118,3.118,0,1,1-3.116-3.223A3.172,3.172,0,0,1,733.432,113.723Z" transform="translate(-724.146 -107.338)" fill="#e0e267"/>
          <g id="Сгруппировать_1912" data-name="Сгруппировать 1912" transform="translate(5.909 0.553)">
            <path id="Контур_2229" data-name="Контур 2229" d="M764.638,88.157a.239.239,0,0,1-.238-.238V76.738a.238.238,0,0,1,.476,0V87.919A.239.239,0,0,1,764.638,88.157Z" transform="translate(-764.4 -76.5)" fill="#fcf8d4"/>
          </g>
          <g id="Сгруппировать_1913" data-name="Сгруппировать 1913" transform="translate(2.398 2.191)">
            <path id="Контур_2230" data-name="Контур 2230" d="M725.9,106.228a.25.25,0,0,1-.176-.077L718.7,98.239a.239.239,0,1,1,.361-.315l7.014,7.9a.241.241,0,0,1-.023.338A.244.244,0,0,1,725.9,106.228Z" transform="translate(-718.644 -97.844)" fill="#fcf8d4"/>
          </g>
          <g id="Сгруппировать_1914" data-name="Сгруппировать 1914" transform="translate(0.829 6.147)">
            <path id="Контур_2231" data-name="Контур 2231" d="M708.361,149.876h-9.923a.238.238,0,1,1,0-.476h9.923a.239.239,0,0,1,.238.238A.23.23,0,0,1,708.361,149.876Z" transform="translate(-698.2 -149.4)" fill="#fcf8d4"/>
          </g>
          <g id="Сгруппировать_1915" data-name="Сгруппировать 1915" transform="translate(2.283 2.191)">
            <path id="Контур_2232" data-name="Контур 2232" d="M717.386,106.229a.264.264,0,0,1-.161-.061.241.241,0,0,1-.023-.338l7.014-7.9a.239.239,0,0,1,.361.315l-7.014,7.912A.264.264,0,0,1,717.386,106.229Z" transform="translate(-717.144 -97.844)" fill="#fcf8d4"/>
          </g>
        </g>
        <path id="Контур_2233" data-name="Контур 2233" d="M406.286,194.265c-.146-5.61-.322-15.587.123-19.685.107-1.013.637-3.269,1.013-4.827L419.509,153.1H390.5l11.773,16.377a48.722,48.722,0,0,1,1.3,5.1c.537,4.121.184,14.1,0,19.692-.031.982-.084,1.827-.138,2.487h-5.073v2.057h13.284V196.76h-5.188A24.11,24.11,0,0,1,406.286,194.265Z" transform="translate(-390.5 -146.669)" fill="#fff"/>
        <path id="Контур_2234" data-name="Контур 2234" d="M450.191,176.052s-1.458-.53-3.814.76c-1.681.921-5.011-.821-8.618-.576-1.19.077-3.73.66-5.848,0-3.807-1.182-5.211-.161-5.211-.161l10.03,13.845s.23.23,1.55.23h.154a4.808,4.808,0,0,0,1.4-.23Z" transform="translate(-423.922 -167.502)" fill="#d9dc4e"/>
        <path id="Контур_2235" data-name="Контур 2235" d="M437.759,176.236c-1.19.077-3.73.66-5.848,0-3.807-1.182-5.211-.161-5.211-.161l10.03,13.845s.23.23,1.55.23h.154V176.213C438.2,176.213,437.981,176.22,437.759,176.236Z" transform="translate(-423.922 -167.502)" fill="#e0e267"/>
        <g id="Сгруппировать_1917" data-name="Сгруппировать 1917" transform="translate(15.143 7.627)">
          <path id="Контур_2236" data-name="Контур 2236" d="M594.986,173.249a1.125,1.125,0,0,1-.637,1.45l-4.014,1.22a1.122,1.122,0,0,1-1.335-.852l-1.121-3.684a1.125,1.125,0,0,1,.637-1.45l4.014-1.213a1.122,1.122,0,0,1,1.335.852Z" transform="translate(-587.819 -168.681)" fill="#fffdf5"/>
          <path id="Контур_2237" data-name="Контур 2237" d="M594.986,173.249a1.125,1.125,0,0,1-.637,1.45l-4.014,1.22a1.122,1.122,0,0,1-1.335-.852l-1.121-3.684a1.125,1.125,0,0,1,.637-1.45l4.014-1.213a1.122,1.122,0,0,1,1.335.852Z" transform="translate(-587.819 -168.681)" fill="none" stroke="#bdd36d" stroke-miterlimit="10" stroke-width="0.309"/>
        </g>
        <g id="Сгруппировать_1918" data-name="Сгруппировать 1918" transform="translate(6.115 7.014)">
          <path id="Контур_2238" data-name="Контур 2238" d="M476.349,166.676a1.136,1.136,0,0,1-1.251.982l-4.113-.813a1.137,1.137,0,0,1-.783-1.381l.752-3.776a1.136,1.136,0,0,1,1.251-.982l4.113.813a1.133,1.133,0,0,1,.783,1.381Z" transform="translate(-470.177 -160.689)" fill="#fffdf5"/>
          <path id="Контур_2239" data-name="Контур 2239" d="M476.349,166.676a1.136,1.136,0,0,1-1.251.982l-4.113-.813a1.137,1.137,0,0,1-.783-1.381l.752-3.776a1.136,1.136,0,0,1,1.251-.982l4.113.813a1.133,1.133,0,0,1,.783,1.381Z" transform="translate(-470.177 -160.689)" fill="none" stroke="#bdd36d" stroke-miterlimit="10" stroke-width="0.309"/>
        </g>
        <path id="Контур_2240" data-name="Контур 2240" d="M538.521,274.03a1.015,1.015,0,0,1-.491,1.335l-3.523,1.3a1.01,1.01,0,0,1-1.243-.691l-1.2-3.239a1.015,1.015,0,0,1,.491-1.335l3.523-1.3a1.01,1.01,0,0,1,1.243.691Z" transform="translate(-521.13 -254.644)" fill="#eff0c0"/>
        <path id="Контур_2241" data-name="Контур 2241" d="M477.181,179.4a12.32,12.32,0,0,1-5.065-.084c-.422-.13-.814-.23-1.174-.315l-.668,3.361a1.127,1.127,0,0,0,.783,1.381l4.113.813a1.136,1.136,0,0,0,1.251-.982l.752-3.776A1.747,1.747,0,0,0,477.181,179.4Z" transform="translate(-464.126 -170.581)" fill="#eff0c0"/>
        <path id="Контур_2242" data-name="Контур 2242" d="M590.3,190.063l4.014-1.213a1.122,1.122,0,0,0,.637-1.45l-.8-2.632c-1.366.115-3.285-.522-5.426-.767l-.246.077a1.122,1.122,0,0,0-.637,1.45l1.12,3.684A1.128,1.128,0,0,0,590.3,190.063Z" transform="translate(-572.64 -175.197)" fill="#eff0c0"/>
      </g>
    </g>
  </g>
</svg>
