<svg xmlns="http://www.w3.org/2000/svg" width="53.215" height="19.382" viewBox="0 0 53.215 19.382">
  <g id="sunglasses" transform="translate(0 -162.759)">
    <path id="Контур_2255" data-name="Контур 2255" d="M27.226,225.82,18.6,234.14a2.386,2.386,0,0,1-2.645.454l-1.344-.612a1.071,1.071,0,0,1-.255-1.786l10.549-9.073Z" transform="translate(-12.531 -54.09)" fill="#394049"/>
    <path id="Контур_2256" data-name="Контур 2256" d="M36.139,223.125,26.521,231.4a11.08,11.08,0,0,0,1.979,3.389,2.382,2.382,0,0,0,1.335-.645l8.624-8.319Z" transform="translate(-23.765 -54.092)" opacity="0.2"/>
    <path id="Контур_2257" data-name="Контур 2257" d="M370.616,225.82l8.624,8.319a2.386,2.386,0,0,0,2.645.454l1.344-.612a1.071,1.071,0,0,0,.255-1.786l-10.549-9.073Z" transform="translate(-332.096 -54.09)" fill="#394049"/>
    <path id="Контур_2258" data-name="Контур 2258" d="M372.936,223.125l9.618,8.272a11.081,11.081,0,0,1-1.979,3.389,2.382,2.382,0,0,1-1.335-.645l-8.624-8.319Z" transform="translate(-332.096 -54.092)" opacity="0.2"/>
    <path id="Контур_2259" data-name="Контур 2259" d="M26.607,168.977c.612,0,1.7.085,1.7,1.271h0a13.8,13.8,0,0,0,.889,4.237c2.421,6.8,5.771,7.826,11.337,7.635,2.005-.069,4.431-.035,6.126-1.44,1.556-1.288,2.666-3.458,3.715-7.253a14.82,14.82,0,0,0,.579-3.53h0c.065-.785.9-1.225,1.534-1.448a1.083,1.083,0,0,0,.724-1.023v-1.964a1.13,1.13,0,0,0-.782-1.075A35.8,35.8,0,0,0,39.6,162.779c-5.633.149-11.092,1.128-13,1.128s-7.364-.979-13-1.128A35.8,35.8,0,0,0,.782,164.386,1.129,1.129,0,0,0,0,165.461v1.964a1.083,1.083,0,0,0,.724,1.023c.635.223,1.469.662,1.534,1.448h0a14.814,14.814,0,0,0,.579,3.53c1.048,3.8,2.159,5.965,3.715,7.253,1.7,1.4,4.121,1.371,6.126,1.44,5.565.191,8.915-.84,11.337-7.635a13.8,13.8,0,0,0,.889-4.237h0C24.9,169.062,26,168.977,26.607,168.977Z" transform="translate(0 0)" fill="#394049"/>
    <path id="Контур_2260" data-name="Контур 2260" d="M52.284,185.077c-5.314-.194-10.886-.064-8.434,7.687,2.217,7.008,4.254,6.829,7.687,6.978s6.876-.035,9.031-6.083C62.86,187.226,59.962,185.356,52.284,185.077Z" transform="translate(-38.759 -19.959)" fill="#536ba5"/>
    <path id="Контур_2261" data-name="Контур 2261" d="M52.292,185.077c-4.5-.164-9.186-.1-9.025,4.638.147-4.286,4.671-4.346,9.025-4.187,5.842.213,8.916,1.347,9.043,4.711C61.47,186.524,58.388,185.3,52.292,185.077Z" transform="translate(-38.767 -19.96)" opacity="0.2"/>
    <path id="Контур_2262" data-name="Контур 2262" d="M303.864,185.077c5.314-.194,10.886-.064,8.433,7.687-2.217,7.008-4.254,6.829-7.687,6.978s-6.876-.035-9.031-6.083C293.288,187.226,296.186,185.356,303.864,185.077Z" transform="translate(-264.174 -19.959)" fill="#536ba5"/>
    <path id="Контур_2263" data-name="Контур 2263" d="M303.868,185.077c4.5-.164,9.186-.1,9.025,4.638-.147-4.286-4.672-4.346-9.025-4.187-5.843.213-8.917,1.347-9.043,4.711C294.689,186.524,297.772,185.3,303.868,185.077Z" transform="translate(-264.178 -19.96)" opacity="0.2"/>
    <g id="Сгруппировать_1930" data-name="Сгруппировать 1930" transform="translate(4.496 165.074)">
      <path id="Контур_2264" data-name="Контур 2264" d="M52.284,185.077c-5.314-.194-10.886-.064-8.434,7.687a27.19,27.19,0,0,0,1,2.707l10.2-10.2C54.206,185.177,53.286,185.113,52.284,185.077Z" transform="translate(-43.254 -185.033)" fill="#fff" opacity="0.1"/>
      <path id="Контур_2265" data-name="Контур 2265" d="M349.728,198.154l-12.417,12.417a9.3,9.3,0,0,0,5.377.928c3.433-.149,5.47.03,7.687-6.978C351.436,201.172,351,199.246,349.728,198.154Z" transform="translate(-306.748 -196.79)" fill="#fff" opacity="0.1"/>
    </g>
  </g>
</svg>
